<svg xmlns="http://www.w3.org/2000/svg" viewBox="0 0 100 70"><linearGradient id="a" gradientUnits="userSpaceOnUse" x1=".401" y1="35.314" x2="49.655" y2="35.314"><stop offset="0" stop-color="#f4b456"/><stop offset="1" stop-color="#c17e1e"/></linearGradient><path fill="url(#a)" d="M43.52 63.77L31.19 35.33l5.18-21.98 13.28-2.91-30.82-3.58L5.5 9.82.4 31.76l12.34 28.45z"/><path fill="#F5A422" d="M43.52 63.77L62 38.9 49.65 10.44l-13.28 2.91-5.18 21.98z"/><path fill="#FFF" d="M47.64 28.18l4.11 9.48-6.17 8.35-4.13-9.52z"/><path fill="#C17E1E" d="M52.89 28.11l4.99 2.9c0 .02 11.31 31.23 11.51 31.34C66 62 51 53 52.89 28.11z"/><linearGradient id="b" gradientUnits="userSpaceOnUse" x1="57.738" y1="35.946" x2="99.795" y2="35.946"><stop offset="0" stop-color="#f4b456"/><stop offset="1" stop-color="#c17e1e"/></linearGradient><path fill="url(#b)" d="M57.87 31.01c11.82-7.7 20.41-18.78 20.86-19.37.45.06 9.07 1.21 20.9-4.75.14 1.49 2.8 29.71-20.75 58.09-23.63-1.13-21.14-32.33-21.01-33.97z"/><path fill="#F4C887" d="M94.65 4C88 8 73.76 8.75 73.75 8.75 73.74 8.76 66 18 52.89 28.11l4.99 2.9C72 22 78.76 11.65 78.78 11.65h.01c.02 0 8.2 2.35 20.84-4.75L94.65 4z"/><path fill="#FFF" d="M83 34.99c1.37-1.79 2.28-4.08 2.27-6.08-.01-3.11-2.21-4.37-4.92-2.81-.12.07-.24.14-.36.22-2.41 1.59-4.35 4.94-4.52 7.81-.13 2.26.81 3.66 2.28 3.88l-1.83 9.58c-.22 1.14.45 1.73 1.35 1.21l6.25-3.61c.9-.52 1.57-1.88 1.34-2.76L83 34.99z"/></svg>