<svg xmlns="http://www.w3.org/2000/svg" viewBox="0 0 825 293"><path fill="#F2F7FC" d="M-.9-.6h825.5v293H-.9z"/><path fill="#FFF" fill-opacity=".72" d="M397.7 85.7H163.1c-.9 0-1.7-.8-1.7-1.7V66c0-.9.8-1.7 1.7-1.7h234.6c.9 0 1.7.8 1.7 1.7v18c0 1-.8 1.7-1.7 1.7zM430.9 120.3H163.1c-.9 0-1.7-.8-1.7-1.7v-18c0-.9.8-1.7 1.7-1.7h267.8c.9 0 1.7.8 1.7 1.7v18c0 .9-.8 1.7-1.7 1.7z"/><path fill="#FFF" d="M70.8 126.7h60.9c2.2 0 3.9-1.8 3.9-3.9V61.9c0-2.2-1.8-3.9-3.9-3.9H70.8a3.9 3.9 0 00-3.9 3.9v60.9c0 2.2 1.7 3.9 3.9 3.9z"/><path fill="#FFF" fill-opacity=".72" d="M338.8 183.3h-176c-.8 0-1.5-.7-1.5-1.5v-18.4c0-.8.7-1.5 1.5-1.5h176c.8 0 1.5.7 1.5 1.5v18.4c0 .8-.7 1.5-1.5 1.5zM379.9 217.8h-217c-.8 0-1.5-.7-1.5-1.5V198c0-.8.7-1.5 1.5-1.5h217c.8 0 1.5.7 1.5 1.5v18.3c0 .8-.7 1.5-1.5 1.5z"/><path fill="#F2F7FC" d="M93.2 97.6c0-.9.1-1.7.2-2.6.1-.8.3-1.6.7-2.4.3-.8.8-1.5 1.4-2.1.6-.7 1.4-1.3 2.4-1.8.5-.3 1.2-.6 2-1.1.8-.4 1.6-1 2.4-1.5.8-.6 1.5-1.3 2.1-2 .6-.8.9-1.6.9-2.5 0-1.3-.5-2.3-1.4-3-.9-.7-2-1.1-3.2-1.1-.8 0-1.5.1-2.1.4-.6.3-1.1.6-1.6 1s-.9.9-1.3 1.4c-.3.5-.7 1-.9 1.3l-6-4.2c1-2.4 2.6-4.2 4.8-5.5 2.2-1.3 4.7-2 7.4-2 1.5 0 2.9.2 4.4.6 1.5.4 2.8 1.1 4 2 1.2.9 2.1 2.1 2.9 3.6.7 1.5 1.1 3.3 1.1 5.4 0 2.2-.5 4.1-1.4 5.6-.9 1.5-2.3 2.8-4 3.9-.8.5-1.6 1-2.5 1.5-.8.4-1.6.9-2.3 1.3-.7.5-1.3 1-1.7 1.6-.4.6-.6 1.3-.6 2.1h-7.7zm.2 14.2v-8.7h7.6v8.7h-7.6z"/><path fill="#FFF" d="M70.8 223.8h60.9c2.2 0 3.9-1.8 3.9-3.9V159c0-2.2-1.8-3.9-3.9-3.9H70.8a3.9 3.9 0 00-3.9 3.9v60.9c0 2.2 1.7 3.9 3.9 3.9z"/><path fill="#F2F7FC" d="M93.2 194.7c0-.9.1-1.7.2-2.6.1-.8.3-1.6.7-2.4.3-.8.8-1.5 1.4-2.1.6-.7 1.4-1.3 2.4-1.8.5-.3 1.2-.6 2-1.1.8-.4 1.6-1 2.4-1.5.8-.6 1.5-1.3 2.1-2 .6-.8.9-1.6.9-2.5 0-1.3-.5-2.3-1.4-3-.9-.7-2-1.1-3.2-1.1-.8 0-1.5.1-2.1.4-.6.3-1.1.6-1.6 1s-.9.9-1.3 1.4c-.3.5-.7 1-.9 1.3l-6-4.2c1-2.4 2.6-4.2 4.8-5.5 2.2-1.3 4.7-2 7.4-2 1.5 0 2.9.2 4.4.6 1.5.4 2.8 1.1 4 2 1.2.9 2.1 2.1 2.9 3.6.7 1.5 1.1 3.3 1.1 5.4 0 2.2-.5 4.1-1.4 5.6-.9 1.5-2.3 2.8-4 3.9-.8.5-1.6 1-2.5 1.5-.8.4-1.6.9-2.3 1.3-.7.5-1.3 1-1.7 1.6-.4.6-.6 1.3-.6 2.1h-7.7zm.2 14.2v-8.7h7.6v8.7h-7.6z"/><path fill="#FFF" d="M515.8 251.5c43.6 31.9 100.8 31.7 143.5 3.9 10.2-6.6 19.5-14.8 27.7-24.5 1.8-2.1 3.5-4.4 5.2-6.7 16.9-23 24.8-49.8 24.4-76.3-.6-38.2-18.4-75.7-51.6-100-11-8-22.8-14-35-18.1-50.6-16.7-108.2.1-141.3 45.3a125.93 125.93 0 0027.1 176.4zM514 93.8c24.8-33.9 68.1-46.5 106-34 9.2 3 18 7.5 26.3 13.5a94.26 94.26 0 0138.7 75c.3 19.8-5.6 40-18.3 57.2-1.3 1.7-2.6 3.4-3.9 5a92.9 92.9 0 01-20.8 18.4c-32 20.9-74.9 21-107.5-2.9-42.2-30.9-51.4-90.1-20.5-132.2z"/><path fill="#7AC6FF" fill-opacity=".25" d="M684.9 148.3l31.6-.5c-.6-38.2-18.4-75.7-51.6-100-11-8-22.8-14-35-18.1l-9.9 30c9.2 3 18 7.5 26.3 13.5a95.06 95.06 0 0138.6 75.1z"/><path fill="#FFF" d="M662.7 210.5l24.2 20.3c1.8-2.1 3.5-4.4 5.2-6.7 16.9-23 24.8-49.8 24.4-76.3l-31.6.5c.3 19.8-5.6 40-18.3 57.2a47.8 47.8 0 01-3.9 5zM659.2 255.4c10.2-6.6 19.5-14.8 27.7-24.5l-24.2-20.3a92.9 92.9 0 01-20.8 18.4l17.3 26.4z"/><path fill="#9FBDDD" d="M510.9 235.1c.1 0 .2-.1.4-.1l-.4.3-.3.2-.4.3c.1-.1.2-.1.2-.2.1 0 .2-.1.3-.1 0-.2.1-.3.2-.4z"/><path fill="#9C5C19" d="M282 96.2l141.4-24.4 83.3 64.5c36.6 29.1 46.2 65 8.5 94-.1 0-.5.2-.5.3-50.1 21.8-112.4 16.2-162.8-4.9l-95.6-40.9c-3.5-1.5-6.5-3.8-6.9-8.1l-1.5-15.9L282 96.2z"/><linearGradient id="a" gradientUnits="userSpaceOnUse" x1="-1770.85" y1="143.73" x2="-1474.09" y2="143.73" gradientTransform="matrix(-1 0 0 1 -1226.45 0)"><stop offset="0" stop-color="#f7c54e"/><stop offset="1" stop-color="#c47b13"/></linearGradient><path fill="url(#a)" d="M292.5 80.3l128-22.1c5.2-.9 10.5.4 14.7 3.7l76.7 59.5c36.6 29.1 46.2 65 8.5 94-.1 0-.2.1-.3.2-.1.1-.2.1-.2.1-50.1 21.8-112.4 16.2-162.8-4.9l-105.6-45.4a6.2 6.2 0 01-3.1-8.5L284.9 86c1.5-3 4.3-5.1 7.6-5.7z"/><path fill="#E4EEEE" d="M311.9 95.2l112.4-17.7 66.7 51.3c29.3 23.1 37.5 51.5 8.4 74.1-.1 0-.2.1-.3.1-.1 0-.1.1-.2.1-39.1 16.8-88.2 12.1-128.3-4.8l-88.9-38.5 30.2-64.6z"/><path fill="#CD3C5B" d="M499.3 202.9c.1 0 .2-.1.3-.1l-.3.1-.3.2-.3.2.2-.2c.1 0 .2-.1.2-.1.1 0 .2-.1.2-.1z"/><path fill="#FFF" d="M325 100.2l168.4 97.2c25.8-20.3 18.3-45.8-8-66.5l-60.3-46.3L325 100.2z"/><path fill="#1460AA" d="M291.1 246.7c5.3-.1 7.4 2 7.5 6.7 0 .4.8.4.8 0-.1-4.7 1.5-6.9 7.2-7.1.4 0 .4-.8 0-.8-5.9.1-7.4-2.6-7.5-6.7 0-.4-.8-.4-.8 0 .1 5-1.8 6.9-7.2 7-.4.1-.4.9 0 .9zM561.7 116.5c14.4-.3 20.3 5.5 20.6 18.4 0 1.2 2.3 1.1 2.2-.1-.3-12.8 4.1-18.9 19.7-19.3 1.2 0 1.1-2.3-.1-2.2-16.1.4-20.3-7-20.6-18.3 0-1.2-2.3-1.1-2.2.1.3 13.5-5 18.9-19.7 19.2-1.1-.1-1 2.2.1 2.2z"/><path fill="#7AC6FF" d="M370.9 66.1l-39.7 17.2-6.6 57.3 69.5 51.5 6.6-57.3-29.8-68.7z"/><linearGradient id="b" gradientUnits="userSpaceOnUse" x1="394.12" y1="146.3" x2="480.09" y2="146.3"><stop offset="0" stop-color="#4793dd"/><stop offset="1" stop-color="#002d77"/></linearGradient><path fill="url(#b)" d="M400.7 134.9l-6.6 57.3 66.2-28.7 13.2-5.8 6.6-57.3z"/><path fill="#002C77" d="M354.4 128.1l3.3-28.6-3.3 1.4-3.3 28.7 23.1 17.1 3.4-1.4z"/><path fill="#FFF" d="M357.7 99.5l-3.3 28.6 23.2 17.2 3.3-28.6z"/><path fill="#002C77" d="M331.2 83.7l-11.6-8.6 52.9-22.9 39.8 91.7-11.6-8.6-29.8-68.8z"/><linearGradient id="c" gradientUnits="userSpaceOnUse" x1="372.55" y1="80.82" x2="491.68" y2="80.82"><stop offset="0" stop-color="#4793dd"/><stop offset="1" stop-color="#002d77"/></linearGradient><path fill="url(#c)" d="M451.9 17.8l-79.4 34.4 39.8 91.7 79.4-34.5z"/><path fill="#002C77" d="M392.6 44.1l-3.3 28.7 13.2-5.8 3.3-28.6z"/><path fill="#7AC6FF" d="M381 35.5l-1.6 14.3 9.9 23 3.3-28.7z"/><linearGradient id="d" gradientUnits="userSpaceOnUse" x1="381.02" y1="36.94" x2="405.83" y2="36.94"><stop offset="0" stop-color="#4793dd"/><stop offset="1" stop-color="#002d77"/></linearGradient><path fill="url(#d)" d="M394.2 29.8L381 35.5l11.6 8.6 13.2-5.7z"/><path fill="#002C77" d="M387.2 36.2l6.6-2.8 5.8 4.2-6.6 2.9z"/><path fill="#7AC6FF" d="M399.6 37.6l-5.8-4.2-.8 7.1z"/></svg>