<svg xmlns="http://www.w3.org/2000/svg" viewBox="0 0 825 293"><path fill="#F2F7FC" d="M-20.4-5.1h861.2v305.7H-20.4z"/><path fill="#FFF" d="M112.6 244.6c43.6 31.9 100.8 31.7 143.5 3.9 10.2-6.6 19.5-14.8 27.7-24.5 1.8-2.1 3.5-4.4 5.2-6.7 16.9-23 24.8-49.8 24.4-76.3-.6-38.2-18.4-75.7-51.6-100-11-8-22.8-14-35-18.1-50.7-16.6-108.3.1-141.4 45.4-41.2 56.2-29 135.2 27.2 176.3zm-1.8-157.7c24.8-33.9 68.1-46.5 106-34 9.2 3 18 7.5 26.3 13.5a94.26 94.26 0 0138.7 75c.3 19.8-5.6 40-18.3 57.2-1.3 1.7-2.6 3.4-3.9 5a92.9 92.9 0 01-20.8 18.4c-32 20.9-74.9 21-107.5-2.9-42.2-30.8-51.3-90-20.5-132.2z"/><path fill="#7AC6FF" fill-opacity=".25" d="M281.8 141.5l31.6-.5c-.6-38.2-18.4-75.7-51.6-100-11-8-22.8-14-35-18.1l-9.9 30c9.2 3 18 7.5 26.3 13.5a94.77 94.77 0 0138.6 75.1z"/><path fill="#FFF" d="M259.6 203.7l24.2 20.3c1.8-2.1 3.5-4.4 5.2-6.7 16.9-23 24.8-49.8 24.4-76.3l-31.6.5c.3 19.8-5.6 40-18.3 57.2-1.2 1.7-2.6 3.4-3.9 5z"/><path fill="#FFF" d="M256.1 248.5c10.2-6.6 19.5-14.8 27.7-24.5l-24.2-20.3a92.9 92.9 0 01-20.8 18.4l17.3 26.4zM734.1 126.1c-1.8-6.7-4.5-13-8-18.8l7.9-12-11.1-11-11.1-11-11.9 8.1c-5.8-3.4-12.2-6-18.9-7.7l-3-14.2-15.6.1-15.6.1-2.8 14.1c-6.7 1.8-13 4.5-18.8 8l-12-7.9-11 11.1-11 11.1 8.1 11.9c-3.4 5.8-6 12.2-7.7 18.9l-14.1 2.9.1 15.6.1 15.6 14.1 2.7c1.8 6.7 4.5 13 8 18.8l-7.9 12 11.1 11 11.1 11 11.9-8.1c5.8 3.4 12.2 6 18.9 7.7l2.9 14.1 15.6-.1 15.6-.1 2.7-14.1c6.7-1.8 13-4.5 18.8-8l12 7.9 11-11.1 11-11.1-8.1-11.9c3.4-5.8 6-12.2 7.7-18.9l14.1-2.9-.1-15.6-.1-15.6-13.9-2.6zm-70.9 57.3c-21.2.1-38.5-16.9-38.6-38.1a38.33 38.33 0 0138.1-38.6c21.2-.1 38.5 16.9 38.6 38.1.1 21.1-17 38.4-38.1 38.6zM584.8 58.9c-.8-3.1-2.1-6-3.7-8.7l3.7-5.6-5.2-5.1-5.2-5.1-5.5 3.7c-2.7-1.6-5.6-2.8-8.8-3.6l-1.4-6.5h-14.4l-1.3 6.5c-3.1.8-6 2.1-8.7 3.7l-5.6-3.7-5.1 5.2-5.1 5.2 3.7 5.5c-1.6 2.7-2.8 5.6-3.6 8.8l-6.5 1.4V75l6.5 1.3c.8 3.1 2.1 6 3.7 8.7l-3.7 5.6 5.2 5.1 5.2 5.1 5.5-3.7c2.7 1.6 5.6 2.8 8.8 3.6l1.4 6.5h14.4l1.3-6.5c3.1-.8 6-2.1 8.7-3.7l5.6 3.7 5.1-5.2 5.1-5.2-3.7-5.5c1.6-2.7 2.8-5.6 3.6-8.8l6.5-1.4V60.2l-6.5-1.3zM552 85.5c-9.8.1-17.8-7.8-17.9-17.6 0-9.9 7.8-17.9 17.6-17.9a17.75 17.75 0 01.3 35.5z"/><path fill="#FFF" d="M650.7 150.8a63.22 63.22 0 00-109.5-33.7 64.9 64.9 0 00-28.2-6.5c-27.3 0-50.7 17.1-59.9 41.2-40.8 4.1-72.7 38.6-72.7 80.4a80.7 80.7 0 0080.8 80.8c16.9 0 32.6-5.2 45.5-14a77.1 77.1 0 0051.5 19.6c17.5 0 33.7-5.8 46.7-15.7 11.1 5.8 23.7 9 37.1 9 44.7 0 80.8-36.2 80.8-80.9.2-41.5-31.5-75.9-72.1-80.2z"/><path fill="#CCBBA3" d="M519.7 171.9s15.6 7.6 24.3-9.5 53.1-28.6 62.4-39.3c9.3-10.8 15.6-12.4 43.5-27.2 0 0 .6-10.3 4.6-9.8 4 .4 7.6.8 11.5-3.6 0 0 12.7-1.9 12.1 1-.6 2.9-16.2 15.7-23.1 18.3 0 0-60.8 55.3-73.6 57.9l-2.3 33s-23.5 7.5-43.6 18.6l-25.1-2.9-6.3-24 15.6-12.5z"/><path fill="#F5A422" d="M544.7 206.4c14-6.8 27.6-11.6 32.5-13.2l-.3-.9c-1-3.4-4.1-6.8-6-9.7-2-3.2-4-6.5-6.1-9.6-4.4-6.3-10.4-11.2-15-17.3-.1-.1-.1-.2-.2-.3a25.7 25.7 0 00-5.5 6.8c-7.6 14.9-20.2 11.2-23.5 9.9-.5-.2-.8-.3-.8-.3l-15.6 12.4 6.3 24 4 .5c-.5 6.4.5 12 .5 12l20.1-9.6.5.1c1.9-1.1 3.8-2.1 5.8-3l3.3-1.8c0 .1 0 .1 0 0z"/><path fill="#CCBBA3" d="M577.4 159.1s20.1-1.8 45.3-16c0 0 .2-21.2 6.3-47.1 0 0-5.3-5.2-3.6-11.5 0 0 2.8-4.6 12.7-3.7 0 0 10-8.8 15.6-9.1s-14.3 22.7-14.3 22.7 1 54.9-3.9 62.5-44 31.2-56.4 35.7c-12.5 4.5-1.7-33.5-1.7-33.5zM533.1 195.3c-2.5-1-6-1.4-9.4 1.3-2.7 2.2-4.2 5.6-4.2 9-.1 4.3-.6 11.6-3.3 17.7 0 0-1.7-20.8-6.3-32.9 0 0-9.7-7.2-15.7.5 0 0-2.4 6.2 11.5 11.3 0 0 .2 10.1-1.5 21.7-1.6 11.6 5.7 21.3 7.8 21.7 1.7.4 9.1-4.8 17.3-20.6 3.9-7.6 6.3-15.8 7.2-24.3.2-2.4-1.2-4.6-3.4-5.4zM480.9 190.4s-9.2 17.8-12.9 21.2c-3.7 3.3-11 11.9-21.1 30.3l5.3 3s21.6-18.3 23.7-23.1 17.2-25.9 17.2-25.9l-12.2-5.5z"/><path fill="#CCBBA3" d="M446.9 241.9l-6 7.3c-10.5 2.3-16.4 7.4-16.4 7.4-.7 3.4.3 7.1 1.8 9.8 2.1.2 4.2.4 6.2.9 1-2.2 2.5-4.9 6-6.3 6.4-2.4.8 10.6 4.8 5.5s8.9-21.6 8.9-21.6l-5.3-3zM479 169.6c1.9-1.4-.8-9.8 7.8-9.2 24.5-14.7 20.1-3.8 23 16.1 1.1 7.2-1.7 11.8-3.5 14-1.1 1.4-14.2 8.5-15 8.7-6.5 1.4-6.7-2.7-8.8-5.2-5.5-6.8-4.5-12.1-3.5-15.3.3-.9-1-1.9-1-4.9 0-1 .3-3.7 1-4.2z"/><linearGradient id="a" gradientUnits="userSpaceOnUse" x1="-3353.1" y1="749.19" x2="-3333.64" y2="774.87" gradientTransform="matrix(-.9974 .07272 .07272 .9974 -2883.72 -359.03)"><stop offset="0" stop-color="#958b7c"/><stop offset=".63" stop-color="#736c60"/><stop offset="1" stop-color="#645e54"/></linearGradient><path fill="url(#a)" d="M474.4 162.9c2.5-17.3 25.6-15.6 25.6-15.6 2.8.5 5.1 1.3 7 2.4 5.4 2 11.8 8.3 12.3 16.5.9 12.9-5.2 18.8-8 19.8-.1 9.4-2.3 14.5-2.3 14.5.8-7.7.1-13.6-1-17.9-.8-3-1.8-5.3-2.7-6.9-1.2-2.1-2.4-5.7-2.4-5.7-.8 1.4 0 7.8 0 7.8-3-1.6-7.2-1.6-7.2-1.6-2-.2-4.1-3.9-5.3-6.3-.3-.7-1.3-.5-1.4.3-.1 2.7.7 5.7.7 5.7-1.7 0-3.9-5.5-5-8.6-.2-.5-.9-.4-1 .1-.3 4.2 1 7.4 1 7.4h-4.9c-2 0-3.8-1.3-4.4-3.2-1.4-4.5-1-8.7-1-8.7z"/><linearGradient id="b" gradientUnits="userSpaceOnUse" x1="-3347.81" y1="734.99" x2="-3337.54" y2="753.64" gradientTransform="matrix(-.9974 .07272 .07272 .9974 -2883.72 -359.03)"><stop offset="0" stop-color="#958b7c"/><stop offset=".63" stop-color="#736c60"/><stop offset="1" stop-color="#645e54"/></linearGradient><path fill="url(#b)" d="M503.9 133.6s13.1 3 6.3 18.7c0 0-11.3 2.5-16.1-4.1 0 0-6-15.1 9.8-14.6z"/><path fill="#CCBBA3" d="M508.5 172.5c1.6-1.1 4.2-2 6.6.4 3.3 3.2.4 10.2-4.4 10.9-.4-3.8-.9-7.7-2.2-11.3z"/><path fill="#FFF" d="M482.1 188.9l8.6-1.4c.5-.1.9.4.8.9-.6 2.4-2.2 4.2-4.3 4.6-2.1.3-4.3-.9-5.6-3-.2-.5 0-1 .5-1.1z"/><path fill="#F5A422" d="M647.9 108.1c-.1-.3-.1-.6-.2-.9l-1.2-9.5c-2.6 1.3-4.9 2.5-7.1 3.7v-.7c-3.9.4-7.9.9-11.8 1.5-.4 2-.8 4-1.1 5.9-9.6 5.1-14.4 8.3-20.2 15.1-7.6 8.9-39.2 18.2-54.9 30.8 0 0-5.1 3-8 9.5 0 0 17.5 2.3 20.7 17.5s9.5 13.7 9.5 13.7l5.4-1.9c12.5-4.5 51.5-28.2 56.4-35.7 2.9-4.4 3.7-25 3.9-41.3 3.3-3.1 6.2-5.6 8.6-7.7zm-61.8 49.5c8.6-4.7 23.6-16.7 37.5-28.4-.8 8.6-.9 13.9-.9 13.9-15.1 8.5-28.4 12.6-36.6 14.5z"/><path fill="#97591C" d="M209.5 206.1l113-68.5s4.3-2.8 10.5.1l45.3 28.3-123.4 74.9-.2.6-45.2-28.4s-3.1-1.6-2.2-4.5c-.1 0-.3-.7 2.2-2.5z"/><linearGradient id="c" gradientUnits="userSpaceOnUse" x1="-3511.35" y1="198.07" x2="-3310.22" y2="198.07" gradientTransform="matrix(-1 0 0 1 -3103.16 0)"><stop offset="0" stop-color="#efc14f"/><stop offset="1" stop-color="#c0781a"/></linearGradient><path fill="url(#c)" d="M209.3 213s-3.2-1.7-1.9-4.8c0 0 .5-1.1 1.9-1.9l112.6-68.5s5.6-3.1 10.9-.1l73.8 46s1.5.9 1.5 2.1c0 0 .4 2.6-1.9 3.7l-113.1 68.7s-2.2 1.6-6 1.4c0 0-3-.2-4.6-1.3l-27.9-17.4v.5L209.3 213z"/><path fill="#97591C" d="M207 210v4.4s-.1 1.6 2.4 3.3l72.9 45.5s2.6 1.6 6.4 1.4c0 0 2.7-.2 4.9-1.7l113.2-68.7s1.6-1.2 1.6-3.2v-4.8s.1 2.2-2.6 3.7L293 258.4s-2.1 1.3-5.5 1.3c0 0-2.8 0-5-1.2l-28-17.5v.6l-45.1-28.4c.1 0-2.2-1.2-2.4-3.2z"/><path fill="#F8FBFD" d="M229.4 208.8l3.3-2s.7-.5 1.6 0l2.3 1.4s.6.4-.1.9l-3.3 2s-.8.5-1.6 0l-2.1-1.3c-.1-.1-.8-.5-.1-1z"/><path fill="#97591C" d="M229.1 209.2v.5s0 .3.3.5l2.1 1.3s.7.5 1.6 0l3.3-2s.3-.2.3-.4v-.6s0 .3-.3.5l-3.3 2s-.8.4-1.6 0l-2.2-1.3c.1 0-.2-.2-.2-.5z"/><path fill="#F8FBFD" d="M222.6 212.8l4-2.4s.7-.5 1.6 0l2.3 1.4s.6.4-.1.9l-4 2.5s-.8.5-1.6 0l-2.1-1.3c-.1-.1-.8-.6-.1-1.1z"/><path fill="#97591C" d="M222.3 213.3v.5s0 .3.3.5l2.1 1.3s.7.5 1.6 0l4.1-2.5s.3-.2.3-.4v-.6s0 .3-.3.5l-4.1 2.5s-.8.4-1.6 0l-2.2-1.3c.1 0-.2-.2-.2-.5z"/><path fill="#F8FBFD" d="M235 205.4l3.3-2s.7-.5 1.6 0l2.3 1.4s.6.4-.1.9l-3.3 2s-.8.5-1.6 0l-2.1-1.3c-.1-.1-.8-.5-.1-1z"/><path fill="#97591C" d="M234.7 205.8v.5s0 .3.3.5l2.1 1.3s.7.5 1.6 0l3.3-2s.3-.2.3-.4v-.6s0 .3-.3.5l-3.3 2s-.8.4-1.6 0l-2.2-1.3c.1 0-.2-.2-.2-.5z"/><path fill="#F8FBFD" d="M240.6 202l3.3-2s.7-.5 1.6 0l2.3 1.4s.6.4-.1.9l-3.3 2s-.8.5-1.6 0l-2.1-1.3c-.1-.1-.8-.5-.1-1z"/><path fill="#97591C" d="M240.3 202.5v.5s0 .3.3.5l2.1 1.3s.7.5 1.6 0l3.3-2s.3-.2.3-.4v-.6s0 .3-.3.5l-3.3 2s-.8.4-1.6 0l-2.2-1.3c.1-.1-.2-.2-.2-.5z"/><path fill="#F8FBFD" d="M246.2 198.6l3.3-2s.7-.5 1.6 0l2.3 1.4s.6.4-.1.9l-3.3 2s-.8.5-1.6 0l-2.1-1.3c-.1 0-.9-.5-.1-1z"/><path fill="#97591C" d="M245.8 199.1v.5s0 .3.3.5l2.1 1.3s.7.5 1.6 0l3.3-2s.3-.2.3-.4v-.6s0 .3-.3.5l-3.3 2s-.8.4-1.6 0l-2.2-1.3c.2-.1-.1-.2-.2-.5z"/><path fill="#F8FBFD" d="M251.7 195.2l3.3-2s.7-.5 1.6 0l2.3 1.4s.6.4-.1.9l-3.3 2s-.8.5-1.6 0l-2.1-1.3c-.1 0-.8-.5-.1-1z"/><path fill="#97591C" d="M251.4 195.7v.5s0 .3.3.5l2.1 1.3s.7.5 1.6 0l3.3-2s.3-.2.3-.4v-.6s0 .3-.3.5l-3.3 2s-.8.4-1.6 0l-2.2-1.3c.1 0-.2-.2-.2-.5z"/><path fill="#F8FBFD" d="M257.3 191.8l3.3-2s.7-.5 1.6 0l2.3 1.4s.6.4-.1.9l-3.3 2s-.8.5-1.6 0l-2.1-1.3c-.1 0-.8-.5-.1-1z"/><path fill="#97591C" d="M257 192.3v.5s0 .3.3.5l2.1 1.3s.7.5 1.6 0l3.3-2s.3-.2.3-.4v-.6s0 .3-.3.5l-3.3 2s-.8.4-1.6 0l-2.2-1.3c.1 0-.2-.2-.2-.5z"/><path fill="#F8FBFD" d="M262.9 188.4l3.3-2s.7-.5 1.6 0l2.3 1.4s.6.4-.1.9l-3.3 2s-.8.5-1.6 0l-2.1-1.3c-.1 0-.8-.5-.1-1z"/><path fill="#97591C" d="M262.6 188.9v.5s0 .3.3.5l2.1 1.3s.7.5 1.6 0l3.3-2s.3-.2.3-.4v-.6s0 .3-.3.5l-3.3 2s-.8.4-1.6 0l-2.2-1.3c.1 0-.2-.2-.2-.5z"/><path fill="#F8FBFD" d="M268.5 185l3.3-2s.7-.5 1.6 0l2.3 1.4s.6.4-.1.9l-3.3 2s-.8.5-1.6 0l-2.1-1.3c-.1 0-.9-.5-.1-1z"/><path fill="#97591C" d="M268.2 185.5v.5s0 .3.3.5l2.1 1.3s.7.5 1.6 0l3.3-2s.3-.2.3-.4v-.6s0 .3-.3.5l-3.3 2s-.8.4-1.6 0l-2.2-1.3c.1 0-.2-.2-.2-.5z"/><path fill="#F8FBFD" d="M274 181.6l3.3-2s.7-.5 1.6 0l2.3 1.4s.6.4-.1.9l-3.3 2s-.8.5-1.6 0l-2.1-1.3s-.8-.4-.1-1z"/><path fill="#97591C" d="M273.7 182.1v.5s0 .3.3.5l2.1 1.3s.7.5 1.6 0l3.3-2s.3-.2.3-.4v-.6s0 .3-.3.5l-3.3 2s-.8.4-1.6 0l-2.2-1.3c.2 0-.2-.2-.2-.5z"/><path fill="#F8FBFD" d="M279.6 178.3l3.3-2s.7-.5 1.6 0l2.3 1.4s.6.4-.1.9l-3.3 2s-.8.5-1.6 0l-2.1-1.3c-.1-.1-.8-.5-.1-1z"/><path fill="#97591C" d="M279.3 178.7v.5s0 .3.3.5l2.1 1.3s.7.5 1.6 0l3.3-2s.3-.2.3-.4v-.6s0 .3-.3.5l-3.3 2s-.8.4-1.6 0l-2.2-1.3c.1 0-.2-.2-.2-.5z"/><path fill="#F8FBFD" d="M285.2 174.8l3.3-2s.7-.5 1.6 0l2.3 1.4s.6.4-.1.9l-3.3 2s-.8.5-1.6 0l-2.1-1.3s-.8-.5-.1-1z"/><path fill="#97591C" d="M284.9 175.3v.5s0 .3.3.5l2.1 1.3s.7.5 1.6 0l3.3-2s.3-.2.3-.4v-.6s0 .3-.3.5l-3.3 2s-.8.4-1.6 0l-2.2-1.3c.2 0-.2-.2-.2-.5z"/><path fill="#F8FBFD" d="M290.8 171.5l3.3-2s.7-.5 1.6 0l2.3 1.4s.6.4-.1.9l-3.3 2s-.8.5-1.6 0l-2.1-1.3c-.1-.1-.8-.5-.1-1z"/><path fill="#97591C" d="M290.5 172v.5s0 .3.3.5l2.1 1.3s.7.5 1.6 0l3.3-2s.3-.2.3-.4v-.6s0 .3-.3.5l-3.3 2s-.8.4-1.6 0l-2.2-1.3c.1-.1-.2-.2-.2-.5z"/><path fill="#F8FBFD" d="M296.4 168.1l3.3-2s.7-.5 1.6 0l2.3 1.4s.6.4-.1.9l-3.3 2s-.8.5-1.6 0l-2.1-1.3c-.1 0-.8-.5-.1-1z"/><path fill="#97591C" d="M296.1 168.6v.5s0 .3.3.5l2.1 1.3s.7.5 1.6 0l3.3-2s.3-.2.3-.4v-.6s0 .3-.3.5l-3.3 2s-.8.4-1.6 0l-2.2-1.3c.1-.1-.2-.2-.2-.5z"/><path fill="#F8FBFD" d="M302 164.6l3.3-2s.7-.5 1.6 0l2.3 1.4s.6.4-.1.9l-3.3 2s-.8.5-1.6 0l-2.1-1.3c-.1 0-.8-.4-.1-1z"/><path fill="#97591C" d="M301.7 165.1v.5s0 .3.3.5l2.1 1.3s.7.5 1.6 0l3.3-2s.3-.2.3-.4v-.6s0 .3-.3.5l-3.3 2s-.8.4-1.6 0l-2.2-1.3c.1 0-.2-.2-.2-.5z"/><path fill="#F8FBFD" d="M307.6 161.3l3.3-2s.7-.5 1.6 0l2.3 1.4s.6.4-.1.9l-3.3 2s-.8.5-1.6 0l-2.1-1.3c-.1-.1-.8-.5-.1-1z"/><path fill="#97591C" d="M307.3 161.7v.5s0 .3.3.5l2.1 1.3s.7.5 1.6 0l3.3-2s.3-.2.3-.4v-.6s0 .3-.3.5l-3.3 2s-.8.4-1.6 0l-2.2-1.3c.1 0-.2-.2-.2-.5z"/><path fill="#F8FBFD" d="M227.2 215.5l3.9-2.4s.8-.5 1.7 0l3.8 2.4s.4.2.4.5-.2.4-.3.5l-4 2.4s-.4.2-.9.2-.7-.2-.7-.2l-3.9-2.4s-.5-.2-.3-.7c-.1.1 0-.1.3-.3z"/><path fill="#97591C" d="M226.7 216v.6s0 .2.3.4l4 2.5s.2.2.7.2c0 0 .5 0 .9-.2l4-2.5s.3-.2.3-.4v-.5s0 .3-.4.5l-4 2.4s-.4.2-.9.2c0 0-.4 0-.7-.2l-4-2.5c.2 0-.2-.1-.2-.5z"/><path fill="#F8FBFD" d="M233.4 211.7l3.9-2.4s.8-.5 1.7 0l3.8 2.4s.4.2.4.5-.2.4-.3.5l-4 2.4s-.4.2-.9.2-.7-.2-.7-.2l-3.9-2.4s-.5-.2-.3-.7l.3-.3z"/><path fill="#97591C" d="M233 212.2v.6s0 .2.3.4l4 2.5s.2.2.7.2c0 0 .5 0 .9-.2l4-2.5s.3-.2.3-.4v-.5s0 .3-.4.5l-4 2.4s-.4.2-.9.2c0 0-.4 0-.7-.2l-4-2.5c.1 0-.2-.1-.2-.5z"/><path fill="#F8FBFD" d="M242.7 213.7l3.9-2.4s.8-.5 1.7 0l3.8 2.4s.4.2.4.5-.2.4-.3.5l-4 2.4s-.4.2-.9.2-.7-.2-.7-.2l-3.9-2.4s-.5-.2-.3-.7c0 0 .1-.2.3-.3z"/><path fill="#97591C" d="M242.3 214.2v.6s0 .2.3.4l4 2.5s.2.2.7.2c0 0 .5 0 .9-.2l4-2.5s.3-.2.3-.4v-.5s0 .3-.4.5l-4 2.4s-.4.2-.9.2c0 0-.4 0-.7-.2l-4-2.5c.1 0-.2-.2-.2-.5z"/><path fill="#F8FBFD" d="M233.3 219.4l7-4.2s.8-.5 1.7 0l3.8 2.4s.4.2.4.5-.2.4-.3.5l-7.1 4.3s-.4.2-.9.2-.7-.2-.7-.2l-3.9-2.4s-.5-.2-.3-.7c0-.1.1-.3.3-.4z"/><path fill="#97591C" d="M232.9 219.9v.6s0 .2.3.4l4 2.5s.2.2.7.2c0 0 .5 0 .9-.2l7.1-4.3s.3-.2.3-.4v-.5s0 .3-.4.5l-7.1 4.3s-.4.2-.9.2c0 0-.4 0-.7-.2l-4-2.5c.1-.1-.2-.3-.2-.6z"/><path fill="#F8FBFD" d="M239.5 223.2l8.6-5.2s.8-.5 1.7 0l3.8 2.4s.4.2.4.5-.2.4-.3.5l-8.7 5.3s-.4.2-.9.2-.7-.2-.7-.2l-3.9-2.4s-.5-.2-.3-.7c-.1 0 0-.2.3-.4z"/><path fill="#97591C" d="M239.1 223.7v.6s0 .2.3.4l4 2.5s.2.2.7.2c0 0 .5 0 .9-.2l8.7-5.3s.3-.2.3-.4v-.5s0 .3-.4.5l-8.7 5.3s-.4.2-.9.2c0 0-.4 0-.7-.2l-4-2.5c.1-.1-.2-.2-.2-.6z"/><path fill="#F8FBFD" d="M250.5 216.6l3.9-2.4s.8-.5 1.7 0l3.8 2.4s.4.2.4.5-.2.4-.3.5l-4 2.4s-.4.2-.9.2-.7-.2-.7-.2l-3.9-2.4s-.5-.2-.3-.7c-.1.1 0-.1.3-.3z"/><path fill="#97591C" d="M250.1 217.2v.6s0 .2.3.4l4 2.5s.2.2.7.2c0 0 .5 0 .9-.2l4-2.5s.3-.2.3-.4v-.5s0 .3-.4.5l-4 2.4s-.4.2-.9.2c0 0-.4 0-.7-.2l-4-2.5c.1 0-.3-.2-.2-.5z"/><path fill="#F8FBFD" d="M259.8 218.6l3.9-2.4s.8-.5 1.7 0l3.8 2.4s.4.2.4.5-.2.4-.3.5l-4 2.4s-.4.2-.9.2-.7-.2-.7-.2l-3.9-2.4s-.5-.2-.3-.7c-.1.1 0-.1.3-.3z"/><path fill="#97591C" d="M259.4 219.2v.6s0 .2.3.4l4 2.5s.2.2.7.2c0 0 .5 0 .9-.2l4-2.5s.3-.2.3-.4v-.5s0 .3-.4.5l-4 2.4s-.4.2-.9.2c0 0-.4 0-.7-.2l-4-2.5c.1 0-.3-.2-.2-.5z"/><path fill="#F8FBFD" d="M259.8 226.3l3.9-2.4s.8-.5 1.7 0l3.8 2.4s.4.2.4.5-.2.4-.3.5l-4 2.4s-.4.2-.9.2-.7-.2-.7-.2l-3.9-2.4s-.5-.2-.3-.7c-.1 0 0-.2.3-.3z"/><path fill="#97591C" d="M259.4 226.8v.6s0 .2.3.4l4 2.5s.2.2.7.2c0 0 .5 0 .9-.2l4-2.5s.3-.2.3-.4v-.5s0 .3-.4.5l-4 2.4s-.4.2-.9.2c0 0-.4 0-.7-.2l-4-2.5c.1 0-.2-.2-.2-.5z"/><path fill="#F8FBFD" d="M265.9 222.5l3.9-2.4s.8-.5 1.7 0l3.8 2.4s.4.2.4.5-.2.4-.3.5l-4 2.4s-.4.2-.9.2-.7-.2-.7-.2l-3.9-2.4s-.5-.2-.3-.7l.3-.3z"/><path fill="#97591C" d="M265.5 223v.6s0 .2.3.4l4 2.5s.2.2.7.2c0 0 .5 0 .9-.2l4-2.5s.3-.2.3-.4v-.5s0 .3-.4.5l-4 2.4s-.4.2-.9.2c0 0-.4 0-.7-.2l-4-2.5c.2 0-.2-.1-.2-.5z"/><path fill="#F8FBFD" d="M272.1 218.8l3.9-2.4s.8-.5 1.7 0l3.8 2.4s.4.2.4.5-.2.4-.3.5l-4 2.4s-.4.2-.9.2-.7-.2-.7-.2l-3.9-2.4s-.5-.2-.3-.7c-.1 0 0-.2.3-.3z"/><path fill="#97591C" d="M271.7 219.3v.6s0 .2.3.4l4 2.5s.2.2.7.2c0 0 .5 0 .9-.2l4-2.5s.3-.2.3-.4v-.5s0 .3-.4.5l-4 2.4s-.4.2-.9.2c0 0-.4 0-.7-.2l-4-2.5c.1 0-.2-.2-.2-.5z"/><path fill="#F8FBFD" d="M278.2 215l28.7-17.4s.8-.5 1.7 0l3.8 2.4s.4.2.4.5-.2.4-.3.5l-28.9 17.5s-.4.2-.9.2-.7-.2-.7-.2l-3.9-2.4s-.5-.2-.3-.7c.1 0 .2-.2.4-.4z"/><path fill="#97591C" d="M277.8 215.6v.6s0 .2.3.4l4 2.5s.2.2.7.2c0 0 .5 0 .9-.2l28.9-17.5s.3-.2.3-.4v-.5s0 .3-.4.5l-28.8 17.5s-.4.2-.9.2c0 0-.4 0-.7-.2l-4-2.5c.1-.1-.3-.3-.3-.6z"/><path fill="#F8FBFD" d="M266 214.9l3.9-2.4s.8-.5 1.7 0l3.8 2.4s.4.2.4.5-.2.4-.3.5l-4 2.4s-.4.2-.9.2-.7-.2-.7-.2l-3.9-2.4s-.5-.2-.3-.7c-.1 0 0-.2.3-.3z"/><path fill="#97591C" d="M265.6 215.4v.6s0 .2.3.4l4 2.5s.2.2.7.2c0 0 .5 0 .9-.2l4-2.5s.3-.2.3-.4v-.5s0 .3-.4.5l-4 2.4s-.4.2-.9.2c0 0-.4 0-.7-.2l-4-2.5c.1 0-.2-.2-.2-.5z"/><path fill="#F8FBFD" d="M272.2 211.1l3.9-2.4s.8-.5 1.7 0l3.8 2.4s.4.2.4.5-.2.4-.3.5l-4 2.4s-.4.2-.9.2-.7-.2-.7-.2l-3.9-2.4s-.5-.2-.3-.7c-.1 0 0-.2.3-.3z"/><path fill="#97591C" d="M271.8 211.6v.6s0 .2.3.4l4 2.5s.2.2.7.2c0 0 .5 0 .9-.2l4-2.5s.3-.2.3-.4v-.5s0 .3-.4.5l-4 2.4s-.4.2-.9.2c0 0-.4 0-.7-.2l-4-2.5c.1 0-.2-.2-.2-.5z"/><path fill="#F8FBFD" d="M278.4 207.3l3.9-2.4s.8-.5 1.7 0l3.8 2.4s.4.2.4.5-.2.4-.3.5l-4 2.4s-.4.2-.9.2-.7-.2-.7-.2l-3.9-2.4s-.5-.2-.3-.7c-.1 0 0-.2.3-.3z"/><path fill="#97591C" d="M278 207.8v.6s0 .2.3.4l4 2.5s.2.2.7.2c0 0 .5 0 .9-.2l4-2.5s.3-.2.3-.4v-.5s0 .3-.4.5l-4 2.4s-.4.2-.9.2c0 0-.4 0-.7-.2l-4-2.5c.1 0-.2-.2-.2-.5z"/><path fill="#F8FBFD" d="M284.6 203.5l3.9-2.4s.8-.5 1.7 0l3.8 2.4s.4.2.4.5-.2.4-.3.5l-4 2.4s-.4.2-.9.2-.7-.2-.7-.2l-3.9-2.4s-.5-.2-.3-.7c0 0 0-.2.3-.3z"/><path fill="#97591C" d="M284.2 204v.6s0 .2.3.4l4 2.5s.2.2.7.2c0 0 .5 0 .9-.2l4-2.5s.3-.2.3-.4v-.5s0 .3-.4.5l-4 2.4s-.4.2-.9.2c0 0-.4 0-.7-.2l-4-2.5c.1 0-.2-.2-.2-.5z"/><path fill="#F8FBFD" d="M290.8 199.8l3.9-2.4s.8-.5 1.7 0l3.8 2.4s.4.2.4.5-.2.4-.3.5l-4 2.4s-.4.2-.9.2-.7-.2-.7-.2l-3.9-2.4s-.5-.2-.3-.7c0 0 .1-.2.3-.3z"/><path fill="#97591C" d="M290.4 200.3v.6s0 .2.3.4l4 2.5s.2.2.7.2c0 0 .5 0 .9-.2l4-2.5s.3-.2.3-.4v-.5s0 .3-.4.5l-4 2.4s-.4.2-.9.2c0 0-.4 0-.7-.2l-4-2.5c.1 0-.2-.2-.2-.5z"/><path fill="#F8FBFD" d="M297.1 196l3.9-2.4s.8-.5 1.7 0l3.8 2.4s.4.2.4.5-.2.4-.3.5l-4 2.4s-.4.2-.9.2-.7-.2-.7-.2l-4-2.4s-.5-.2-.3-.7c0 0 .1-.2.4-.3z"/><path fill="#97591C" d="M296.6 196.5v.6s0 .2.3.4l4 2.5s.2.2.7.2c0 0 .5 0 .9-.2l4-2.5s.3-.2.3-.4v-.5s0 .3-.4.5l-4 2.4s-.4.2-.9.2c0 0-.4 0-.7-.2l-4-2.5c.2 0-.2-.2-.2-.5z"/><path fill="#F8FBFD" d="M303.3 192.2l3.9-2.4s.8-.5 1.7 0l3.8 2.4s.4.2.4.5-.2.4-.3.5l-4 2.4s-.4.2-.9.2-.7-.2-.7-.2l-3.9-2.4s-.5-.2-.3-.7c-.1 0 0-.2.3-.3z"/><path fill="#97591C" d="M302.9 192.7v.6s0 .2.3.4l4 2.5s.2.2.7.2c0 0 .5 0 .9-.2l4-2.5s.3-.2.3-.4v-.5s0 .3-.4.5l-4 2.4s-.4.2-.9.2c0 0-.4 0-.7-.2l-4-2.5c.1 0-.2-.2-.2-.5z"/><path fill="#F8FBFD" d="M309.5 196.2l3.9-2.4s.8-.5 1.7 0l3.8 2.4s.4.2.4.5-.2.4-.3.5l-4 2.4s-.4.2-.9.2-.7-.2-.7-.2l-3.9-2.4s-.5-.2-.3-.7l.3-.3z"/><path fill="#97591C" d="M309.1 196.7v.6s0 .2.3.4l4 2.5s.2.2.7.2c0 0 .5 0 .9-.2l4-2.5s.3-.2.3-.4v-.5s0 .3-.4.5l-4 2.4s-.4.2-.9.2c0 0-.4 0-.7-.2l-4-2.5c.1 0-.2-.2-.2-.5z"/><path fill="#F8FBFD" d="M315.8 192.5l3.9-2.4s.8-.5 1.7 0l3.8 2.4s.4.2.4.5-.2.4-.3.5l-4 2.4s-.4.2-.9.2-.7-.2-.7-.2l-3.9-2.4s-.5-.2-.3-.7c-.1 0 0-.2.3-.3z"/><path fill="#97591C" d="M315.3 193v.6s0 .2.3.4l4 2.5s.2.2.7.2c0 0 .5 0 .9-.2l4-2.5s.3-.2.3-.4v-.5s0 .3-.4.5l-4 2.4s-.4.2-.9.2c0 0-.4 0-.7-.2l-4-2.5c.2 0-.2-.2-.2-.5z"/><path fill="#F8FBFD" d="M309.5 188.4l3.9-2.4s.8-.5 1.7 0l3.8 2.4s.4.2.4.5-.2.4-.3.5l-4 2.4s-.4.2-.9.2-.7-.2-.7-.2l-3.9-2.4s-.5-.2-.3-.7c-.1 0 0-.1.3-.3z"/><path fill="#97591C" d="M309.1 188.9v.6s0 .2.3.4l4 2.5s.2.2.7.2c0 0 .5 0 .9-.2l4-2.5s.3-.2.3-.4v-.5s0 .3-.4.5l-4 2.4s-.4.2-.9.2c0 0-.4 0-.7-.2l-4-2.5c.1 0-.2-.2-.2-.5z"/><path fill="#F8FBFD" d="M315.7 184.7l3.9-2.4s.8-.5 1.7 0l3.8 2.4s.4.2.4.5-.2.4-.3.5l-4 2.4s-.4.2-.9.2-.7-.2-.7-.2l-3.9-2.4s-.5-.2-.3-.7c0 0 .1-.2.3-.3z"/><path fill="#97591C" d="M315.3 185.2v.6s0 .2.3.4l4 2.5s.2.2.7.2c0 0 .5 0 .9-.2l4-2.5s.3-.2.3-.4v-.5s0 .3-.4.5l-4 2.4s-.4.2-.9.2c0 0-.4 0-.7-.2l-4-2.5c.1 0-.2-.2-.2-.5z"/><path fill="#F8FBFD" d="M322 180.9l7.8-4.8s.8-.5 1.7 0l3.8 2.4s.4.2.4.5-.2.4-.3.5l-8 4.9s-.4.2-.9.2-.7-.2-.7-.2l-3.9-2.4s-.5-.2-.3-.7c0-.1.1-.3.4-.4z"/><path fill="#97591C" d="M321.6 181.4v.6s0 .2.3.4l4 2.5s.2.2.7.2c0 0 .5 0 .9-.2l8-4.9s.3-.2.3-.4v-.5s0 .3-.4.5l-7.9 4.9s-.4.2-.9.2c0 0-.4 0-.7-.2l-4-2.5c0-.1-.4-.3-.3-.6z"/><path fill="#F8FBFD" d="M322 188.7l9-5.5s.8-.5 1.7 0l3.8 2.4s.4.2.4.5-.2.4-.3.5l-9.2 5.6s-.4.2-.9.2-.7-.2-.7-.2l-3.9-2.4s-.5-.2-.3-.7c0-.1.1-.3.4-.4z"/><path fill="#97591C" d="M321.6 189.2v.6s0 .2.3.4l4 2.5s.2.2.7.2c0 0 .5 0 .9-.2l9.2-5.6s.3-.2.3-.4v-.5s0 .3-.4.5l-9.1 5.6s-.4.2-.9.2c0 0-.4 0-.7-.2l-4-2.5c0-.1-.3-.3-.3-.6z"/><path fill="#F8FBFD" d="M248.9 209.9l3.9-2.4s.8-.5 1.7 0l3.8 2.4s.4.2.4.5-.2.4-.3.5l-4 2.4s-.4.2-.9.2-.7-.2-.7-.2l-3.9-2.4s-.5-.2-.3-.7c0 .1.1-.1.3-.3z"/><path fill="#97591C" d="M248.5 210.5v.6s0 .2.3.4l4 2.5s.2.2.7.2c0 0 .5 0 .9-.2l4-2.5s.3-.2.3-.4v-.5s0 .3-.4.5l-4 2.4s-.4.2-.9.2c0 0-.4 0-.7-.2l-4-2.5c.1 0-.2-.2-.2-.5z"/><path fill="#F8FBFD" d="M255.1 206.2l3.9-2.4s.8-.5 1.7 0l3.8 2.4s.4.2.4.5-.2.4-.3.5l-4 2.4s-.4.2-.9.2-.7-.2-.7-.2l-3.9-2.4s-.5-.2-.3-.7c0 0 .1-.2.3-.3z"/><path fill="#97591C" d="M254.7 206.7v.6s0 .2.3.4l4 2.5s.2.2.7.2c0 0 .5 0 .9-.2l4-2.5s.3-.2.3-.4v-.5s0 .3-.4.5l-4 2.4s-.4.2-.9.2c0 0-.4 0-.7-.2l-4-2.5c.1 0-.2-.2-.2-.5z"/><path fill="#F8FBFD" d="M261.3 202.4l3.9-2.4s.8-.5 1.7 0l3.8 2.4s.4.2.4.5-.2.4-.3.5l-4 2.4s-.4.2-.9.2-.7-.2-.7-.2l-3.9-2.4s-.5-.2-.3-.7c0 0 .1-.2.3-.3z"/><path fill="#97591C" d="M260.9 202.9v.6s0 .2.3.4l4 2.5s.2.2.7.2c0 0 .5 0 .9-.2l4-2.5s.3-.2.3-.4v-.5s0 .3-.4.5l-4 2.4s-.4.2-.9.2c0 0-.4 0-.7-.2l-4-2.5c.1 0-.2-.2-.2-.5z"/><path fill="#F8FBFD" d="M267.5 198.6l3.9-2.4s.8-.5 1.7 0l3.8 2.4s.4.2.4.5-.2.4-.3.5l-4 2.4s-.4.2-.9.2-.7-.2-.7-.2l-3.9-2.4s-.5-.2-.3-.7c0 .1.1-.1.3-.3z"/><path fill="#97591C" d="M267.1 199.1v.6s0 .2.3.4l4 2.5s.2.2.7.2c0 0 .5 0 .9-.2l4-2.5s.3-.2.3-.4v-.5s0 .3-.4.5l-4 2.4s-.4.2-.9.2c0 0-.4 0-.7-.2l-4-2.5c.1 0-.2-.1-.2-.5z"/><path fill="#F8FBFD" d="M273.7 194.9l3.9-2.4s.8-.5 1.7 0l3.8 2.4s.4.2.4.5-.2.4-.3.5l-4 2.4s-.4.2-.9.2-.7-.2-.7-.2l-3.9-2.4s-.5-.2-.3-.7c0 0 .1-.2.3-.3z"/><path fill="#97591C" d="M273.3 195.4v.6s0 .2.3.4l4 2.5s.2.2.7.2c0 0 .5 0 .9-.2l4-2.5s.3-.2.3-.4v-.5s0 .3-.4.5l-4 2.4s-.4.2-.9.2c0 0-.4 0-.7-.2l-4-2.5c.1 0-.2-.2-.2-.5z"/><path fill="#F8FBFD" d="M279.9 191.1l3.9-2.4s.8-.5 1.7 0l3.8 2.4s.4.2.4.5-.2.4-.3.5l-4 2.4s-.4.2-.9.2-.7-.2-.7-.2l-3.9-2.4s-.5-.2-.3-.7c0 0 .1-.2.3-.3z"/><path fill="#97591C" d="M279.5 191.6v.6s0 .2.3.4l4 2.5s.2.2.7.2c0 0 .5 0 .9-.2l4-2.5s.3-.2.3-.4v-.5s0 .3-.4.5l-4 2.4s-.4.2-.9.2c0 0-.4 0-.7-.2l-4-2.5c.1 0-.2-.2-.2-.5z"/><path fill="#F8FBFD" d="M286.1 187.3l3.9-2.4s.8-.5 1.7 0l3.8 2.4s.4.2.4.5-.2.4-.3.5l-4 2.4s-.4.2-.9.2-.7-.2-.7-.2l-3.9-2.4s-.5-.2-.3-.7l.3-.3z"/><path fill="#97591C" d="M285.7 187.8v.6s0 .2.3.4l4 2.5s.2.2.7.2c0 0 .5 0 .9-.2l4-2.5s.3-.2.3-.4v-.5s0 .3-.4.5l-4 2.4s-.4.2-.9.2c0 0-.4 0-.7-.2l-4-2.5c.2 0-.2-.2-.2-.5z"/><path fill="#F8FBFD" d="M292.3 183.5l3.9-2.4s.8-.5 1.7 0l3.8 2.4s.4.2.4.5-.2.4-.3.5l-4 2.4s-.4.2-.9.2-.7-.2-.7-.2l-3.9-2.4s-.5-.2-.3-.7c0 .1.1-.1.3-.3z"/><path fill="#97591C" d="M291.9 184.1v.6s0 .2.3.4l4 2.5s.2.2.7.2c0 0 .5 0 .9-.2l4-2.5s.3-.2.3-.4v-.5s0 .3-.4.5l-4 2.4s-.4.2-.9.2c0 0-.4 0-.7-.2l-4-2.5c.2-.1-.2-.2-.2-.5z"/><path fill="#F8FBFD" d="M298.5 179.8l3.9-2.4s.8-.5 1.7 0l3.8 2.4s.4.2.4.5-.2.4-.3.5l-4 2.4s-.4.2-.9.2-.7-.2-.7-.2l-3.9-2.4s-.5-.2-.3-.7c0 0 .1-.2.3-.3z"/><path fill="#97591C" d="M298.1 180.3v.6s0 .2.3.4l4 2.5s.2.2.7.2c0 0 .5 0 .9-.2l4-2.5s.3-.2.3-.4v-.5s0 .3-.4.5l-4 2.4s-.4.2-.9.2c0 0-.4 0-.7-.2l-4-2.5c.2 0-.2-.2-.2-.5z"/><path fill="#F8FBFD" d="M304.7 176l3.9-2.4s.8-.5 1.7 0l3.8 2.4s.4.2.4.5-.2.4-.3.5l-4 2.4s-.4.2-.9.2-.7-.2-.7-.2l-3.9-2.4s-.5-.2-.3-.7c0 0 .1-.2.3-.3z"/><path fill="#97591C" d="M304.3 176.5v.6s0 .2.3.4l4 2.5s.2.2.7.2c0 0 .5 0 .9-.2l4-2.5s.3-.2.3-.4v-.5s0 .3-.4.5l-4 2.4s-.4.2-.9.2c0 0-.4 0-.7-.2l-4-2.5c.2 0-.2-.2-.2-.5z"/><path fill="#F8FBFD" d="M310.9 172.2l3.9-2.4s.8-.5 1.7 0l3.8 2.4s.4.2.4.5-.2.4-.3.5l-4 2.4s-.4.2-.9.2-.7-.2-.7-.2l-3.9-2.4s-.5-.2-.3-.7l.3-.3z"/><path fill="#97591C" d="M310.5 172.7v.6s0 .2.3.4l4 2.5s.2.2.7.2c0 0 .5 0 .9-.2l4-2.5s.3-.2.3-.4v-.5s0 .3-.4.5l-4 2.4s-.4.2-.9.2c0 0-.4 0-.7-.2l-4-2.5c.2 0-.2-.1-.2-.5z"/><path fill="#F8FBFD" d="M317.2 168.4l4.3-2.6s.8-.5 1.7 0l3.8 2.4s.4.2.4.5-.2.4-.3.5l-4.5 2.7s-.4.2-.9.2-.7-.2-.7-.2l-3.9-2.4s-.5-.2-.3-.7c0 0 .1-.2.4-.4z"/><path fill="#97591C" d="M316.7 169v.6s0 .2.3.4l4 2.5s.2.2.7.2c0 0 .5 0 .9-.2l4.5-2.7s.3-.2.3-.4v-.5s0 .3-.4.5l-4.4 2.7s-.4.2-.9.2c0 0-.4 0-.7-.2l-4-2.5c.1-.1-.3-.3-.3-.6z"/><path fill="#F8FBFD" d="M239.7 207.9l3.9-2.4s.8-.5 1.7 0l3.8 2.4s.4.2.4.5-.2.4-.3.5l-4 2.4s-.4.2-.9.2-.7-.2-.7-.2l-3.9-2.4s-.5-.2-.3-.7c0 0 0-.1.3-.3z"/><path fill="#97591C" d="M239.3 208.4v.6s0 .2.3.4l4 2.5s.2.2.7.2c0 0 .5 0 .9-.2l4-2.5s.3-.2.3-.4v-.5s0 .3-.4.5l-4 2.4s-.4.2-.9.2c0 0-.4 0-.7-.2l-4-2.5c.1 0-.2-.2-.2-.5z"/><path fill="#F8FBFD" d="M246 204.1l3.9-2.4s.8-.5 1.7 0l3.8 2.4s.4.2.4.5-.2.4-.3.5l-4 2.4s-.4.2-.9.2-.7-.2-.7-.2l-3.9-2.4s-.5-.2-.3-.7c-.1 0 0-.1.3-.3z"/><path fill="#97591C" d="M245.6 204.6v.6s0 .2.3.4l4 2.5s.2.2.7.2c0 0 .5 0 .9-.2l4-2.5s.3-.2.3-.4v-.5s0 .3-.4.5l-4 2.4s-.4.2-.9.2c0 0-.4 0-.7-.2l-4-2.5c.1 0-.2-.2-.2-.5z"/><path fill="#F8FBFD" d="M252.2 200.3l3.9-2.4s.8-.5 1.7 0l3.8 2.4s.4.2.4.5-.2.4-.3.5l-4 2.4s-.4.2-.9.2-.7-.2-.7-.2l-3.9-2.4s-.5-.2-.3-.7c0 0 .1-.2.3-.3z"/><path fill="#97591C" d="M251.8 200.8v.6s0 .2.3.4l4 2.5s.2.2.7.2c0 0 .5 0 .9-.2l4-2.5s.3-.2.3-.4v-.5s0 .3-.4.5l-4 2.4s-.4.2-.9.2c0 0-.4 0-.7-.2l-4-2.5c.2 0-.2-.2-.2-.5z"/><path fill="#F8FBFD" d="M258.5 196.5l3.9-2.4s.8-.5 1.7 0l3.8 2.4s.4.2.4.5-.2.4-.3.5l-4 2.4s-.4.2-.9.2-.7-.2-.7-.2l-3.9-2.4s-.5-.2-.3-.7c0 0 .1-.2.3-.3z"/><path fill="#97591C" d="M258.1 197v.6s0 .2.3.4l4 2.5s.2.2.7.2c0 0 .5 0 .9-.2l4-2.5s.3-.2.3-.4v-.5s0 .3-.4.5l-4 2.4s-.4.2-.9.2c0 0-.4 0-.7-.2l-4-2.5c.1 0-.2-.2-.2-.5z"/><path fill="#F8FBFD" d="M264.8 192.7l3.9-2.4s.8-.5 1.7 0l3.8 2.4s.4.2.4.5-.2.4-.3.5l-4 2.4s-.4.2-.9.2-.7-.2-.7-.2l-3.9-2.4s-.5-.2-.3-.7c-.1 0 0-.2.3-.3z"/><path fill="#97591C" d="M264.4 193.2v.6s0 .2.3.4l4 2.5s.2.2.7.2c0 0 .5 0 .9-.2l4-2.5s.3-.2.3-.4v-.5s0 .3-.4.5l-4 2.4s-.4.2-.9.2c0 0-.4 0-.7-.2l-4-2.5c.1 0-.2-.2-.2-.5z"/><path fill="#F8FBFD" d="M271.1 188.8l3.9-2.4s.8-.5 1.7 0l3.8 2.4s.4.2.4.5-.2.4-.3.5l-4 2.4s-.4.2-.9.2-.7-.2-.7-.2l-3.9-2.4s-.5-.2-.3-.7c-.1.1 0-.1.3-.3z"/><path fill="#97591C" d="M270.7 189.4v.6s0 .2.3.4l4 2.5s.2.2.7.2c0 0 .5 0 .9-.2l4-2.5s.3-.2.3-.4v-.5s0 .3-.4.5l-4 2.4s-.4.2-.9.2c0 0-.4 0-.7-.2l-4-2.5c.1 0-.2-.2-.2-.5z"/><path fill="#F8FBFD" d="M277.4 185l3.9-2.4s.8-.5 1.7 0l3.8 2.4s.4.2.4.5-.2.4-.3.5l-4 2.4s-.4.2-.9.2-.7-.2-.7-.2l-3.9-2.4s-.5-.2-.3-.7c-.1 0 0-.1.3-.3z"/><path fill="#97591C" d="M276.9 185.5v.6s0 .2.3.4l4 2.5s.2.2.7.2c0 0 .5 0 .9-.2l4-2.5s.3-.2.3-.4v-.5s0 .3-.4.5l-4 2.4s-.4.2-.9.2c0 0-.4 0-.7-.2l-4-2.5c.2 0-.2-.1-.2-.5z"/><path fill="#F8FBFD" d="M283.6 181.2l3.9-2.4s.8-.5 1.7 0l3.8 2.4s.4.2.4.5-.2.4-.3.5l-4 2.4s-.4.2-.9.2-.7-.2-.7-.2l-3.9-2.4s-.5-.2-.3-.7c-.1.1 0-.1.3-.3z"/><path fill="#97591C" d="M283.2 181.8v.6s0 .2.3.4l4 2.5s.2.2.7.2c0 0 .5 0 .9-.2l4-2.5s.3-.2.3-.4v-.5s0 .3-.4.5l-4 2.4s-.4.2-.9.2c0 0-.4 0-.7-.2l-4-2.5c.1 0-.2-.2-.2-.5z"/><path fill="#F8FBFD" d="M289.9 177.5l3.9-2.4s.8-.5 1.7 0l3.8 2.4s.4.2.4.5-.2.4-.3.5l-4 2.4s-.4.2-.9.2-.7-.2-.7-.2l-3.9-2.4s-.5-.2-.3-.7c-.1 0 0-.2.3-.3z"/><path fill="#97591C" d="M289.5 178v.6s0 .2.3.4l4 2.5s.2.2.7.2c0 0 .5 0 .9-.2l4-2.5s.3-.2.3-.4v-.5s0 .3-.4.5l-4 2.4s-.4.2-.9.2c0 0-.4 0-.7-.2l-4-2.5c.1 0-.2-.2-.2-.5z"/><path fill="#F8FBFD" d="M296.2 173.6l3.9-2.4s.8-.5 1.7 0l3.8 2.4s.4.2.4.5-.2.4-.3.5l-4 2.4s-.4.2-.9.2-.7-.2-.7-.2l-3.9-2.4s-.5-.2-.3-.7c-.1.1 0-.1.3-.3z"/><path fill="#97591C" d="M295.7 174.2v.6s0 .2.3.4l4 2.5s.2.2.7.2c0 0 .5 0 .9-.2l4-2.5s.3-.2.3-.4v-.5s0 .3-.4.5l-4 2.4s-.4.2-.9.2c0 0-.4 0-.7-.2l-4-2.5c.2-.1-.2-.2-.2-.5z"/><path fill="#F8FBFD" d="M302.4 169.8l3.9-2.4s.8-.5 1.7 0l3.8 2.4s.4.2.4.5-.2.4-.3.5l-4 2.4s-.4.2-.9.2-.7-.2-.7-.2l-3.9-2.4s-.5-.2-.3-.7c0 0 0-.1.3-.3z"/><path fill="#97591C" d="M302 170.3v.6s0 .2.3.4l4 2.5s.2.2.7.2c0 0 .5 0 .9-.2l4-2.5s.3-.2.3-.4v-.5s0 .3-.4.5l-4 2.4s-.4.2-.9.2c0 0-.4 0-.7-.2l-4-2.5c.1 0-.2-.2-.2-.5z"/><path fill="#F8FBFD" d="M308.7 166l6.5-4s.8-.5 1.7 0l3.8 2.4s.4.2.4.5-.2.4-.3.5l-6.7 4.1s-.4.2-.9.2-.7-.2-.7-.2l-3.9-2.4s-.5-.2-.3-.7c.1-.1.1-.3.4-.4z"/><path fill="#97591C" d="M308.3 166.5v.6s0 .2.3.4l4 2.5s.2.2.7.2c0 0 .5 0 .9-.2l6.7-4.1s.3-.2.3-.4v-.5s0 .3-.4.5l-6.6 4.1s-.4.2-.9.2c0 0-.4 0-.7-.2l-4-2.5c0-.1-.3-.3-.3-.6z"/><path fill="#F8FBFD" d="M256.7 212.9l3.9-2.4s.8-.5 1.7 0l3.8 2.4s.4.2.4.5-.2.4-.3.5l-4 2.4s-.4.2-.9.2-.7-.2-.7-.2l-3.9-2.4s-.5-.2-.3-.7c-.1 0 0-.2.3-.3z"/><path fill="#97591C" d="M256.3 213.4v.6s0 .2.3.4l4 2.5s.2.2.7.2c0 0 .5 0 .9-.2l4-2.5s.3-.2.3-.4v-.5s0 .3-.4.5l-4 2.4s-.4.2-.9.2c0 0-.4 0-.7-.2l-4-2.5c.1 0-.3-.2-.2-.5z"/><path fill="#F8FBFD" d="M262.9 209.1l3.9-2.4s.8-.5 1.7 0l3.8 2.4s.4.2.4.5-.2.4-.3.5l-4 2.4s-.4.2-.9.2-.7-.2-.7-.2l-3.9-2.4s-.5-.2-.3-.7c-.1 0 0-.2.3-.3z"/><path fill="#97591C" d="M262.5 209.6v.6s0 .2.3.4l4 2.5s.2.2.7.2c0 0 .5 0 .9-.2l4-2.5s.3-.2.3-.4v-.5s0 .3-.4.5l-4 2.4s-.4.2-.9.2c0 0-.4 0-.7-.2l-4-2.5c.1 0-.2-.2-.2-.5z"/><path fill="#F8FBFD" d="M269.1 205.3l3.9-2.4s.8-.5 1.7 0l3.8 2.4s.4.2.4.5-.2.4-.3.5l-4 2.4s-.4.2-.9.2-.7-.2-.7-.2l-3.9-2.4s-.5-.2-.3-.7c-.1.1 0-.1.3-.3z"/><path fill="#97591C" d="M268.7 205.8v.6s0 .2.3.4l4 2.5s.2.2.7.2c0 0 .5 0 .9-.2l4-2.5s.3-.2.3-.4v-.5s0 .3-.4.5l-4 2.4s-.4.2-.9.2c0 0-.4 0-.7-.2l-4-2.5c.1 0-.2-.1-.2-.5z"/><path fill="#F8FBFD" d="M275.3 201.6l3.9-2.4s.8-.5 1.7 0l3.8 2.4s.4.2.4.5-.2.4-.3.5l-4 2.4s-.4.2-.9.2-.7-.2-.7-.2l-3.9-2.4s-.5-.2-.3-.7c0 0 .1-.2.3-.3z"/><path fill="#97591C" d="M274.9 202.1v.6s0 .2.3.4l4 2.5s.2.2.7.2c0 0 .5 0 .9-.2l4-2.5s.3-.2.3-.4v-.5s0 .3-.4.5l-4 2.4s-.4.2-.9.2c0 0-.4 0-.7-.2l-4-2.5c.1 0-.2-.2-.2-.5z"/><path fill="#F8FBFD" d="M281.5 197.8l3.9-2.4s.8-.5 1.7 0l3.8 2.4s.4.2.4.5-.2.4-.3.5l-4 2.4s-.4.2-.9.2-.7-.2-.7-.2l-3.9-2.4s-.5-.2-.3-.7c0 0 .1-.2.3-.3z"/><path fill="#97591C" d="M281.1 198.3v.6s0 .2.3.4l4 2.5s.2.2.7.2c0 0 .5 0 .9-.2l4-2.5s.3-.2.3-.4v-.5s0 .3-.4.5l-4 2.4s-.4.2-.9.2c0 0-.4 0-.7-.2l-4-2.5c.2 0-.2-.2-.2-.5z"/><path fill="#F8FBFD" d="M287.8 194l3.9-2.4s.8-.5 1.7 0l3.8 2.4s.4.2.4.5-.2.4-.3.5l-4 2.4s-.4.2-.9.2-.7-.2-.7-.2l-3.9-2.4s-.5-.2-.3-.7c-.1 0 0-.1.3-.3z"/><path fill="#97591C" d="M287.4 194.5v.6s0 .2.3.4l4 2.5s.2.2.7.2c0 0 .5 0 .9-.2l4-2.5s.3-.2.3-.4v-.5s0 .3-.4.5l-4 2.4s-.4.2-.9.2c0 0-.4 0-.7-.2l-4-2.5c.1 0-.3-.2-.2-.5z"/><path fill="#F8FBFD" d="M294 190.2l3.9-2.4s.8-.5 1.7 0l3.8 2.4s.4.2.4.5-.2.4-.3.5l-4 2.4s-.4.2-.9.2-.7-.2-.7-.2l-3.9-2.4s-.5-.2-.3-.7c-.1.1 0-.1.3-.3z"/><path fill="#97591C" d="M293.6 190.8v.6s0 .2.3.4l4 2.5s.2.2.7.2c0 0 .5 0 .9-.2l4-2.5s.3-.2.3-.4v-.5s0 .3-.4.5l-4 2.4s-.4.2-.9.2c0 0-.4 0-.7-.2l-4-2.5c.1 0-.2-.2-.2-.5z"/><path fill="#F8FBFD" d="M300.2 186.5l3.9-2.4s.8-.5 1.7 0l3.8 2.4s.4.2.4.5-.2.4-.3.5l-4 2.4s-.4.2-.9.2-.7-.2-.7-.2l-3.9-2.4s-.5-.2-.3-.7c-.1 0 0-.2.3-.3z"/><path fill="#97591C" d="M299.8 187v.6s0 .2.3.4l4 2.5s.2.2.7.2c0 0 .5 0 .9-.2l4-2.5s.3-.2.3-.4v-.5s0 .3-.4.5l-4 2.4s-.4.2-.9.2c0 0-.4 0-.7-.2l-4-2.5c.1 0-.2-.2-.2-.5z"/><path fill="#F8FBFD" d="M306.4 182.7l3.9-2.4s.8-.5 1.7 0l3.8 2.4s.4.2.4.5-.2.4-.3.5l-4 2.4s-.4.2-.9.2-.7-.2-.7-.2l-3.9-2.4s-.5-.2-.3-.7c0 0 0-.2.3-.3z"/><path fill="#97591C" d="M306 183.2v.6s0 .2.3.4l4 2.5s.2.2.7.2c0 0 .5 0 .9-.2l4-2.5s.3-.2.3-.4v-.5s0 .3-.4.5l-4 2.4s-.4.2-.9.2c0 0-.4 0-.7-.2l-4-2.5c.1 0-.2-.2-.2-.5z"/><path fill="#F8FBFD" d="M312.6 178.9l3.9-2.4s.8-.5 1.7 0l3.8 2.4s.4.2.4.5-.2.4-.3.5l-4 2.4s-.4.2-.9.2-.7-.2-.7-.2l-3.9-2.4s-.5-.2-.3-.7c0 .1.1-.1.3-.3z"/><path fill="#97591C" d="M312.2 179.4v.6s0 .2.3.4l4 2.5s.2.2.7.2c0 0 .5 0 .9-.2l4-2.5s.3-.2.3-.4v-.5s0 .3-.4.5l-4 2.4s-.4.2-.9.2c0 0-.4 0-.7-.2l-4-2.5c.1 0-.2-.1-.2-.5z"/><path fill="#F8FBFD" d="M333.4 181.7l2.7-1.7s.8-.5 1.7 0l3.8 2.4s.4.2.4.5-.2.4-.3.5l-2.9 1.8s-.4.2-.9.2-.7-.2-.7-.2l-3.9-2.4s-.5-.2-.3-.7c0-.1.1-.3.4-.4z"/><path fill="#97591C" d="M333 182.2v.6s0 .2.3.4l4 2.5s.2.2.7.2c0 0 .5 0 .9-.2l2.9-1.8s.3-.2.3-.4v-.5s0 .3-.4.5l-2.8 1.8s-.4.2-.9.2c0 0-.4 0-.7-.2l-4-2.5c0-.1-.3-.3-.3-.6z"/><path fill="#F8FBFD" d="M338.5 178.6l2.7-1.7s.8-.5 1.7 0l3.8 2.4s.4.2.4.5-.2.4-.3.5l-2.9 1.8s-.4.2-.9.2-.7-.2-.7-.2l-3.9-2.4s-.5-.2-.3-.7c0-.1.1-.3.4-.4z"/><path fill="#97591C" d="M338.1 179.1v.6s0 .2.3.4l4 2.5s.2.2.7.2c0 0 .5 0 .9-.2l2.9-1.8s.3-.2.3-.4v-.5s0 .3-.4.5l-2.8 1.8s-.4.2-.9.2c0 0-.4 0-.7-.2l-4-2.5c0-.1-.3-.3-.3-.6z"/><path fill="#F8FBFD" d="M343.6 175.5l2.7-1.7s.8-.5 1.7 0l3.8 2.4s.4.2.4.5-.2.4-.3.5L349 179s-.4.2-.9.2-.7-.2-.7-.2l-3.9-2.4s-.5-.2-.3-.7c0-.1.1-.3.4-.4z"/><path fill="#97591C" d="M343.2 176v.6s0 .2.3.4l4 2.5s.2.2.7.2c0 0 .5 0 .9-.2l2.9-1.8s.3-.2.3-.4v-.5s0 .3-.4.5L349 179s-.4.2-.9.2c0 0-.4 0-.7-.2l-4-2.5c.1 0-.2-.2-.2-.5z"/><path fill="#F8FBFD" d="M343.1 168.3l2.7-1.7s.9-.6 1.8 0l3.8 2.4s.4.2.4.5-.2.4-.3.5l-3 1.9s-.4.2-.9.2-.7-.2-.7-.2l-3.9-2.4s-.5-.2-.3-.7c0-.2.1-.4.4-.5z"/><path fill="#97591C" d="M342.7 168.8v.6s0 .2.3.4l4 2.5s.2.2.7.2c0 0 .5 0 .9-.2l3-1.9s.3-.2.3-.4v-.5s0 .3-.4.5l-2.9 1.8s-.4.2-.9.2c0 0-.4 0-.7-.2l-4-2.5s-.3-.2-.3-.5z"/><path fill="#F8FBFD" d="M348.3 165.1l2.7-1.7s.9-.6 1.8 0l3.8 2.4s.4.2.4.5-.2.4-.3.5l-3 1.9s-.4.2-.9.2-.7-.2-.7-.2l-3.9-2.4s-.5-.2-.3-.7c0-.2.1-.4.4-.5z"/><path fill="#97591C" d="M347.9 165.6v.6s0 .2.3.4l4 2.5s.2.2.7.2c0 0 .5 0 .9-.2l3-1.9s.3-.2.3-.4v-.5s0 .3-.4.5l-2.9 1.8s-.4.2-.9.2c0 0-.4 0-.7-.2l-4-2.5s-.3-.2-.3-.5z"/><path fill="#F8FBFD" d="M354.5 169l2.7-1.7s.9-.6 1.8 0l3.8 2.4s.4.2.4.5-.2.4-.3.5l-3 1.9s-.4.2-.9.2-.7-.2-.7-.2l-3.9-2.4s-.5-.2-.3-.7c.1-.2.1-.4.4-.5z"/><path fill="#97591C" d="M354.1 169.5v.6s0 .2.3.4l4 2.5s.2.2.7.2c0 0 .5 0 .9-.2l3-1.9s.3-.2.3-.4v-.5s0 .3-.4.5l-2.9 1.8s-.4.2-.9.2c0 0-.4 0-.7-.2l-4-2.5s-.3-.2-.3-.5z"/><path fill="#F8FBFD" d="M349.3 172.1l2.7-1.7s.9-.6 1.8 0l3.8 2.4s.4.2.4.5-.2.4-.3.5l-3 1.9s-.4.2-.9.2-.7-.2-.7-.2l-3.9-2.4s-.5-.2-.3-.7c0-.1.1-.3.4-.5z"/><path fill="#97591C" d="M348.9 172.6v.6s0 .2.3.4l4 2.5s.2.2.7.2c0 0 .5 0 .9-.2l3-1.9s.3-.2.3-.4v-.5s0 .3-.4.5l-2.9 1.8s-.4.2-.9.2c0 0-.4 0-.7-.2l-4-2.5s-.3-.1-.3-.5z"/><path fill="#F8FBFD" d="M332.5 174.7l2.7-1.7s.8-.5 1.7 0l3.8 2.4s.4.2.4.5-.2.4-.3.5l-2.9 1.8s-.4.2-.9.2-.7-.2-.7-.2l-3.9-2.4s-.5-.2-.3-.7c0 0 .1-.2.4-.4z"/><path fill="#97591C" d="M332.1 175.2v.6s0 .2.3.4l4 2.5s.2.2.7.2c0 0 .5 0 .9-.2l2.9-1.8s.3-.2.3-.4v-.5s0 .3-.4.5l-2.8 1.8s-.4.2-.9.2c0 0-.4 0-.7-.2l-4-2.5c0-.1-.4-.2-.3-.6z"/><path fill="#F8FBFD" d="M318.8 175.1l8.7-5.3s.8-.5 1.7 0l3.8 2.4s.4.2.4.5-.2.4-.3.5l-8.9 5.4s-.4.2-.9.2-.7-.2-.7-.2l-3.9-2.4s-.5-.2-.3-.7l.4-.4z"/><path fill="#97591C" d="M318.4 175.6v.6s0 .2.3.4l4 2.5s.2.2.7.2c0 0 .5 0 .9-.2l8.9-5.4s.3-.2.3-.4v-.5s0 .3-.4.5l-8.8 5.4s-.4.2-.9.2c0 0-.4 0-.7-.2l-4-2.5c.1-.1-.3-.3-.3-.6z"/><path fill="#F8FBFD" d="M245.7 227.1l11.6-7.1s.8-.5 1.7 0l3.8 2.4s.4.2.4.5-.2.4-.3.5l-11.8 7.1s-.4.2-.9.2-.7-.2-.7-.2l-3.9-2.4s-.5-.2-.3-.7c0 0 .1-.2.4-.3z"/><path fill="#97591C" d="M245.3 227.6v.6s0 .2.3.4l4 2.5s.2.2.7.2c0 0 .5 0 .9-.2l11.8-7.2s.3-.2.3-.4v-.5s0 .3-.4.5l-11.7 7.1s-.4.2-.9.2c0 0-.4 0-.7-.2l-4-2.5s-.3-.2-.3-.5z"/><path fill="#F8FBFD" d="M251.9 231l5.4-3.3s.8-.5 1.7 0l3.8 2.4s.4.2.4.5-.2.4-.3.5l-5.6 3.4s-.4.2-.9.2-.7-.2-.7-.2l-3.9-2.4s-.5-.2-.3-.7c.1-.1.2-.3.4-.4z"/><path fill="#97591C" d="M251.5 231.5v.6s0 .2.3.4l4 2.5s.2.2.7.2c0 0 .5 0 .9-.2l5.6-3.4s.3-.2.3-.4v-.5s0 .3-.4.5l-5.5 3.4s-.4.2-.9.2c0 0-.4 0-.7-.2l-4-2.5c.1-.1-.3-.3-.3-.6z"/><path fill="#F8FBFD" d="M337.9 171.4l2.9-1.7s.8-.5 1.7 0l3.8 2.4s.4.2.4.5-.2.4-.3.5l-3 1.8s-.4.2-.9.2-.7-.2-.7-.2l-3.9-2.4s-.5-.2-.3-.7c-.1-.1 0-.3.3-.4z"/><path fill="#97591C" d="M337.5 171.9v.6s0 .2.3.4l4 2.5s.2.2.7.2c0 0 .5 0 .9-.2l3-1.8s.3-.2.3-.4v-.5s0 .3-.4.5l-3 1.8s-.4.2-.9.2c0 0-.4 0-.7-.2l-4-2.5c.1-.1-.3-.3-.2-.6z"/><path fill="#F8FBFD" d="M331.7 167.5l2.9-1.8s.8-.5 1.7 0l3.8 2.4s.4.2.4.5-.2.4-.3.5l-3 1.8s-.4.2-.9.2-.7-.2-.7-.2l-3.9-2.4s-.5-.2-.3-.7c-.1.1 0-.1.3-.3z"/><path fill="#97591C" d="M331.3 168v.6s0 .2.3.4l4 2.5s.2.2.7.2c0 0 .5 0 .9-.2l3-1.9s.3-.2.3-.4v-.5s0 .3-.4.5l-3 1.8s-.4.2-.9.2c0 0-.4 0-.7-.2l-4-2.5c.1 0-.3-.1-.2-.5z"/><path fill="#F8FBFD" d="M336.9 164.4l2.9-1.8s.8-.5 1.7 0l3.8 2.4s.4.2.4.5-.2.4-.3.5l-3 1.8s-.4.2-.9.2-.7-.2-.7-.2l-3.9-2.4s-.5-.2-.3-.7c-.1 0 0-.2.3-.3z"/><path fill="#97591C" d="M336.5 164.9v.6s0 .2.3.4l4 2.5s.2.2.7.2c0 0 .5 0 .9-.2l3-1.9s.3-.2.3-.4v-.5s0 .3-.4.5l-3 1.8s-.4.2-.9.2c0 0-.4 0-.7-.2l-4-2.5c.1 0-.3-.2-.2-.5z"/><path fill="#F8FBFD" d="M342.1 161.2l2.9-1.8s.8-.5 1.7 0l3.8 2.4s.4.2.4.5-.2.4-.3.5l-3 1.8s-.4.2-.9.2-.7-.2-.7-.2l-3.9-2.4s-.5-.2-.3-.7c-.1.1 0-.1.3-.3z"/><path fill="#97591C" d="M341.7 161.7v.6s0 .2.3.4l4 2.5s.2.2.7.2c0 0 .5 0 .9-.2l3-1.9s.3-.2.3-.4v-.5s0 .3-.4.5l-3 1.8s-.4.2-.9.2c0 0-.4 0-.7-.2l-4-2.5c.1 0-.2-.1-.2-.5z"/><path fill="#F8FBFD" d="M325.5 163.6l2.9-1.8s.8-.5 1.7 0l3.8 2.4s.4.2.4.5-.2.4-.3.5l-3 1.8s-.4.2-.9.2-.7-.2-.7-.2l-3.9-2.4s-.5-.2-.3-.7c-.1.1 0-.1.3-.3z"/><path fill="#97591C" d="M325 164.1v.6s0 .2.3.4l4 2.5s.2.2.7.2c0 0 .5 0 .9-.2l3-1.9s.3-.2.3-.4v-.5s0 .3-.4.5l-3 1.8s-.4.2-.9.2c0 0-.4 0-.7-.2l-4-2.5c.2 0-.2-.1-.2-.5z"/><path fill="#F8FBFD" d="M330.7 160.5l2.9-1.8s.8-.5 1.7 0l3.8 2.4s.4.2.4.5-.2.4-.3.5l-3 1.8s-.4.2-.9.2-.7-.2-.7-.2l-3.9-2.4s-.5-.2-.3-.7c-.1 0 0-.2.3-.3z"/><path fill="#97591C" d="M330.3 161v.6s0 .2.3.4l4 2.5s.2.2.7.2c0 0 .5 0 .9-.2l3-1.9s.3-.2.3-.4v-.5s0 .3-.4.5l-3 1.8s-.4.2-.9.2c0 0-.4 0-.7-.2l-4-2.5c.1 0-.3-.2-.2-.5z"/><path fill="#F8FBFD" d="M335.9 157.3l2.9-1.8s.8-.5 1.7 0l3.8 2.4s.4.2.4.5-.2.4-.3.5l-3 1.8s-.4.2-.9.2-.7-.2-.7-.2l-3.9-2.4s-.5-.2-.3-.7c-.1.1 0-.1.3-.3z"/><path fill="#97591C" d="M335.5 157.8v.6s0 .2.3.4l4 2.5s.2.2.7.2c0 0 .5 0 .9-.2l3-1.9s.3-.2.3-.4v-.5s0 .3-.4.5l-3 1.8s-.4.2-.9.2c0 0-.4 0-.7-.2l-4-2.5c.1 0-.2-.1-.2-.5z"/><path fill="#F8FBFD" d="M341.1 154.2l2.9-1.8s.8-.5 1.7 0l10.1 6.3s.4.2.4.5-.2.4-.3.5l-3 1.8s-.4.2-.9.2-.7-.2-.7-.2l-10.2-6.4s-.5-.2-.3-.7c-.1.1 0-.1.3-.2z"/><path fill="#97591C" d="M340.7 154.7v.6s0 .2.3.4l10.2 6.4s.2.2.7.2c0 0 .5 0 .9-.2l3-1.9s.3-.2.3-.4v-.5s0 .3-.4.5l-3 1.8s-.4.2-.9.2c0 0-.4 0-.7-.2l-10.2-6.4c.1 0-.2-.2-.2-.5z"/><path fill="#F8FBFD" d="M353.5 161.9l2.9-1.8s.8-.5 1.7 0l10.1 6.3s.4.2.4.5-.2.4-.3.5l-3 1.8s-.4.2-.9.2-.7-.2-.7-.2l-10.2-6.4s-.5-.2-.3-.7c-.1.1 0-.1.3-.2z"/><path fill="#97591C" d="M353.1 162.4v.6s0 .2.3.4l10.2 6.4s.2.2.7.2c0 0 .5 0 .9-.2l3-1.9s.3-.2.3-.4v-.5s0 .3-.4.5l-3 1.8s-.4.2-.9.2c0 0-.4 0-.7-.2l-10.2-6.4c.1 0-.2-.2-.2-.5z"/><path fill="#F8FBFD" d="M319.2 159.7l2.9-1.8s.8-.5 1.7 0l3.8 2.4s.4.2.4.5-.2.4-.3.5l-3 1.8s-.4.2-.9.2-.7-.2-.7-.2l-3.9-2.4s-.5-.2-.3-.7c0 .1.1-.1.3-.3z"/><path fill="#97591C" d="M318.8 160.2v.6s0 .2.3.4l4 2.5s.2.2.7.2c0 0 .5 0 .9-.2l3-1.9s.3-.2.3-.4v-.4s0 .3-.4.5l-3 1.8s-.4.2-.9.2c0 0-.4 0-.7-.2l-4-2.5c.2-.1-.2-.2-.2-.6z"/><path fill="#F8FBFD" d="M314.8 157l2.9-1.8s.8-.5 1.7 0l2 1.3s.4.2.4.5-.2.4-.3.5l-3 1.8s-.4.2-.9.2-.7-.2-.7-.2l-2.1-1.3s-.5-.2-.3-.7c-.1 0 0-.2.3-.3z"/><path fill="#97591C" d="M314.4 157.5v.6s0 .2.3.4l2.1 1.4s.2.2.7.2c0 0 .5 0 .9-.2l3-1.9s.3-.2.3-.4v-.5s0 .3-.4.5l-3 1.8s-.4.2-.9.2c0 0-.4 0-.7-.2l-2.1-1.4c.1 0-.2-.2-.2-.5z"/><path fill="#F8FBFD" d="M320 153.8l2.9-1.8s.8-.5 1.7 0l2 1.3s.4.2.4.5-.2.4-.3.5l-3 1.8s-.4.2-.9.2-.7-.2-.7-.2l-2.1-1.3s-.5-.2-.3-.7c-.1 0 0-.2.3-.3z"/><path fill="#97591C" d="M319.6 154.3v.6s0 .2.3.4l2.1 1.4s.2.2.7.2c0 0 .5 0 .9-.2l3-1.9s.3-.2.3-.4v-.5s0 .3-.4.5l-3 1.8s-.4.2-.9.2c0 0-.4 0-.7-.2l-2.1-1.4c.1 0-.3-.2-.2-.5z"/><path fill="#F8FBFD" d="M325.2 150.6l2.9-1.8s.8-.5 1.7 0l2 1.3s.4.2.4.5-.2.4-.3.5l-3 1.8s-.4.2-.9.2-.7-.2-.7-.2l-2.1-1.3s-.5-.2-.3-.7c-.1.1 0-.1.3-.3z"/><path fill="#97591C" d="M324.8 151.1v.6s0 .2.3.4l2.1 1.4s.2.2.7.2c0 0 .5 0 .9-.2l3-1.9s.3-.2.3-.4v-.5s0 .3-.4.5l-3 1.8s-.4.2-.9.2c0 0-.4 0-.7-.2l-2.1-1.4c.1 0-.2-.1-.2-.5z"/><path fill="#F8FBFD" d="M330.4 147.5l2.9-1.8s.8-.5 1.7 0l2 1.3s.4.2.4.5-.2.4-.3.5l-3 1.8s-.4.2-.9.2-.7-.2-.7-.2l-2.1-1.3s-.5-.2-.3-.7c-.1 0 0-.2.3-.3z"/><path fill="#97591C" d="M330 148v.6s0 .2.3.4l2.1 1.4s.2.2.7.2c0 0 .5 0 .9-.2l3-1.9s.3-.2.3-.4v-.5s0 .3-.4.5l-3 1.8s-.4.2-.9.2c0 0-.4 0-.7-.2l-2.1-1.4c.1 0-.2-.2-.2-.5z"/><path fill="#F8FBFD" d="M324.5 156.6l2.9-1.8s.8-.5 1.7 0l3.8 2.4s.4.2.4.5-.2.4-.3.5l-3 1.8s-.4.2-.9.2-.7-.2-.7-.2l-3.9-2.4s-.5-.2-.3-.7c-.1 0 0-.2.3-.3z"/><path fill="#97591C" d="M324 157.1v.6s0 .2.3.4l4 2.5s.2.2.7.2c0 0 .5 0 .9-.2l3-1.9s.3-.2.3-.4v-.5s0 .3-.4.5l-3 1.8s-.4.2-.9.2c0 0-.4 0-.7-.2l-4-2.5c.2 0-.2-.2-.2-.5z"/><path fill="#F8FBFD" d="M329.7 153.4l2.9-1.8s.8-.5 1.7 0l3.8 2.4s.4.2.4.5-.2.4-.3.5l-3 1.8s-.4.2-.9.2-.7-.2-.7-.2l-3.9-2.4s-.5-.2-.3-.7c-.1.1 0-.1.3-.3z"/><path fill="#97591C" d="M329.3 153.9v.6s0 .2.3.4l4 2.5s.2.2.7.2c0 0 .5 0 .9-.2l3-1.9s.3-.2.3-.4v-.5s0 .3-.4.5l-3 1.8s-.4.2-.9.2c0 0-.4 0-.7-.2l-4-2.5c.1 0-.3-.1-.2-.5z"/><path fill="#C0781A" d="M254.5 241L378 165.9l28.3 17.6s2 1.4 1.9 3c0 0-.1 1.8-2.1 3.1l-112.4 68.3s-4.7 3.7-11.3.6L254.5 241z"/><path fill="#F8FBFD" d="M334.9 150.3l2.9-1.8s.8-.5 1.7 0l3.8 2.4s.4.2.4.5-.2.4-.3.5l-3 1.8s-.4.2-.9.2-.7-.2-.7-.2l-3.9-2.4s-.5-.2-.3-.7c-.1 0 0-.2.3-.3z"/><path fill="#97591C" d="M334.4 150.8v.6s0 .2.3.4l4 2.5s.2.2.7.2c0 0 .5 0 .9-.2l3-1.9s.3-.2.3-.4v-.5s0 .3-.4.5l-3 1.8s-.4.2-.9.2c0 0-.4 0-.7-.2l-4-2.5c.2 0-.2-.2-.2-.5zM282.6 258.5c-.1-.1-.1-.1 0 0l-28-17.5v.6l-45.1-28.4s-2.2-1.2-2.5-3.2v4.4s-.1 1.6 2.4 3.3l72.9 45.5s.1 0 .2.1v-4.8zM361.1 217l-67.3 40.8v4.8l112.9-68.5s1.6-1.2 1.6-3.2v-4.7c0 .4-.2 2.3-2.6 3.7L361.1 217"/><path fill="#EFC14D" d="M287.6 226.5l1.1-.7 29.4-17.8s2.2-1.9 4.5-.2l20.4 12.7s1.2.8.3 1.8l-30.9 18.8s-1.6 1.2-3.6.3l-20.9-13c0-.1-1.3-.8-.3-1.9z"/><path fill="#C0781A" d="M223.6 196.9l86.8-52.7s1-.7 2-.1l4.6 3s.5.3.4.7c0 0 0 .3-.4.5l-87.5 53.1s-.8.5-1.8 0l-4.5-3s-.6-.3-.3-.9c0 0 .1-.2.3-.3l.4-.3z"/><path fill="#97591C" d="M222.7 197.9v.5s0 .3.4.6l4.5 3s.3.3.9.3c.5 0 .8-.1 1-.2l87.5-53.2s.4-.2.4-.6v-.5s0 .3-.4.6l-87.5 53.2s-.4.2-1 .2-.9-.3-.9-.3l-4.5-3s-.4-.3-.4-.6z"/><linearGradient id="d" gradientUnits="userSpaceOnUse" x1="-3432.26" y1="117.72" x2="-3306.86" y2="117.72" gradientTransform="matrix(-1 0 0 1 -3103.16 0)"><stop offset="0" stop-color="#efc14f"/><stop offset="1" stop-color="#c0781a"/></linearGradient><path fill="url(#d)" d="M209.2 99l114.4-69.5s2-1.6 4-.3c0 0 1.2.8 1.4 2.8l.1 93.4s.5 6.6-5.3 10.9l-114.6 69.6s-2.2 1.5-4 .3-1.5-4.4-1.5-4.4v-92.7c0 .1-.2-6.1 5.5-10.1z"/><path fill="#97591C" d="M204.8 206l-1.3-.9s-1.2-.9-1.2-3.7v-93s-.1-6.2 5.5-10.2l114.4-69.4s2.1-1.5 3.8-.4l1.6.9s-1.5-1.1-3.6.1L209.2 99s-5.2 3-5.5 10.2v93.1s-.1 2.4 1.1 3.7z"/><path fill="#C0781A" d="M326 28.2c-1.7-1-3.8.4-3.8.4L207.8 98.1c-.1 0-.1.1-.1.1.3.4.7.7 1.1 1.1.3-.2.4-.3.4-.3L324 29.3c1.7-1 3.1-.4 3.5-.2l-1.5-.9z"/><path fill="#97591C" d="M203.7 202.3v-93.1-.6c-.5-.3-.9-.5-1.4-.8v93.5c0 2.8 1.2 3.7 1.2 3.7l1.3.9c-1.2-1.2-1.1-3.6-1.1-3.6z"/><path fill="#F8FBFD" d="M268.4 67.9c.4.4.4 1.4 0 2.3-.5 1-1.3 1.6-1.8 1.3.1.1.1.1.2.1.6.3 1.4-.3 1.9-1.3.3-1 .3-2.1-.3-2.4z"/><path fill="#97591C" d="M268.3 70.2c.4-.9.4-1.9 0-2.3-.6-.3-1.4.3-1.8 1.3-.4.9-.4 1.9 0 2.3.6.2 1.4-.3 1.8-1.3z"/><path fill="#FFF" d="M208.9 110.8l116.3-70.7v88.4l-116.1 70.9z"/><path fill="#8E5D16" d="M360.5 128l3.1 7.3s2.1 3.3 5.4 1.8c0 0 4.1-1.3 3.1-4.5-.9-3.2-11.6-4.6-11.6-4.6zM380.6 133.7l3.5 7.2s1 2.2 6.6.8c0 0 5.1-1.6 5.5-3.8l-.7-11.5-14.9 7.3zM400.2 128.5s4 2.2 6.5-.4c0 0 3.1-3 .9-5.6-2.1-2.5-7.4 6-7.4 6zM344.7 89.8s-3 1-3.6 2.5c-.6 1.5.6 2.6 2.4 1.7 1.6-.9 1.2-4.2 1.2-4.2z"/><linearGradient id="e" gradientUnits="userSpaceOnUse" x1="-2968.82" y1="-748.59" x2="-2896.84" y2="-748.59" gradientTransform="rotate(6.86 -8376.65 27311.2)"><stop offset="0" stop-color="#f4b456"/><stop offset="1" stop-color="#c17e1e"/></linearGradient><path fill="url(#e)" d="M413.2 112.4c-4.9 16.5-24.4 25.3-43.5 19.6-19.1-5.7-30.7-23.6-25.8-40.1s24.4-25.3 43.5-19.6c19.1 5.6 30.7 23.6 25.8 40.1z"/><path fill="#F4C887" d="M393 80.2s-5.7-3.6-4.1-7.4c0 0 4.8-8.9 10.7-10.4 0 0 2.7-.5 3.8 1.4 0 0 3 1.8-.1 17.4 0 0-2.9-2.9-4.4-2.6-.1-.1-2.5-.3-5.9 1.6z"/><path fill="#8E5D16" d="M406.2 123.6s-4.9.9-6.7-2.6 1.6-11.2 4.3-14.8c2.7-3.6 4.6-4.7 6.8-5.3 0 0 .3-.4 3.6.9 3.3 1.4-8 21.8-8 21.8z"/><path fill="#F4C887" d="M373.4 111.5s-9.1-5.2-5.3-18.8c0 0 1-3.8 6.6-4.8 5.6-.9 7 2.9 7 2.9s-5.9 11.7-8.3 20.7zM416.2 102.2c3.3 1.5 4 7 1.2 13.6-2.9 7-7.4 10-10.9 8.3-.2-.1-.3-.2-.4-.3s-.3-.2-.4-.3c-2.5-2.2-2.8-7.6-.4-13.1 2.7-5.9 7.5-9.7 10.9-8.2z"/><path fill="#8E5D16" d="M361 76.7s-.1-1.3 3.1-1.7c0 0 7-.7 16.9 4.2 0 0 2.5 2-2 2.2 0 0-8.7-4.2-16-4.2 0 0-2.6.3-2-.5z"/><ellipse transform="rotate(-7.46 408.43 115.07)" fill="#8E5D16" cx="408.5" cy="115.1" rx="1.6" ry="2.9"/><ellipse transform="rotate(-7.46 414 109.44)" fill="#8E5D16" cx="414" cy="109.4" rx="1.6" ry="2.9"/><ellipse transform="rotate(-10.05 394.84 103.8)" fill="#FFF" cx="394.9" cy="103.8" rx="2.5" ry="2.9"/><ellipse transform="rotate(-28.43 406.76 91.04)" fill="#FFF" cx="406.7" cy="91" rx="1.7" ry="2.9"/><path fill="#8E5D16" d="M374.9 107.2s-2.8-11.3.5-15.6c0 0 2-2.6 5.4 1.2l-5.9 14.4zM394.9 79.6s1.4-7.4 6.3-13.7c0 0 .9-.8 1.3.9 0 0 1.1.8-.3 13.2 0 .1-3.2-2.7-7.3-.4zM406 86.1s-.3-.1-.7-.3c-.2-.1-.5-.2-.7-.2-.1 0-.3-.1-.4-.1-.1 0-.3-.1-.4-.1h-.7c-.1 0-.2-.1-.3-.1-.1 0-.2-.1-.3-.2-.1-.1-.2-.1-.3-.2-.1-.1-.2-.1-.3-.2-.2-.1-.3-.2-.3-.2l-.1-.2s0-.1.1-.3c.1-.1.1-.2.2-.3.1-.1.2-.2.4-.3.1-.1.3-.1.5-.2s.4 0 .6 0c.2 0 .4.1.5.2.2.1.3.2.5.3.2.1.3.2.4.3.1.1.3.2.4.3.2.2.4.5.6.7.3.4.4.7.4.7l-.1.4zM387.5 105.5s-.3-.6-.6-1.6c-.2-.5-.3-1.1-.4-1.8-.1-.3-.1-.7-.1-1V100c0-.4 0-.7.1-1.1 0-.4.1-.8.3-1.1.1-.2.2-.3.3-.5.1-.2.2-.3.4-.4.3-.3.5-.5.8-.6.1-.1.3-.1.4-.2.1 0 .3-.1.4-.1.2-.1.5-.1.6-.1h.5l.1.2-.1.1c-.1.1-.1.2-.2.3 0 .1-.1.1-.1.2l-.2.2c-.1.1-.1.2-.2.2-.1.1-.1.2-.2.3l-.3.6c0 .1-.1.2-.1.3 0 .1-.1.2-.2.3-.1.2-.2.5-.4.7l-.3.9c-.1.6-.2 1.2-.3 1.9v1.7c0 1 .1 1.7.1 1.7h-.3z"/><path fill="#FDCE05" d="M272.4 104.9c-1-2.8-1-5.2-.2-7.1-1 1.1-1.9 2.3-2.9 3.4-.8 1.9-.8 4.3.2 7.1 2.6 7.4 11 14.7 18.8 16.1 3.9.7 6.9-.1 8.6-2.1 1-1.1 1.9-2.3 2.9-3.4-1.7 2-4.7 2.8-8.6 2.1-7.8-1.4-16.2-8.6-18.8-16.1z"/><path fill="#FDCE05" d="M272.2 97.8c.3-.6.6-1.2 1-1.6l-2.9 3.4c-.4.5-.7 1-1 1.6.5-.6 1-1.1 1.5-1.7l.4-.4c.2-.2.4-.4.6-.7.1-.1.2-.3.4-.4-.1 0-.1-.1 0-.2z"/><path fill="#FDC804" d="M296.9 122.3l2.9-3.4c1.7-2 2.1-5 .8-8.7-2.6-7.4-11-14.7-18.8-16.1-3.9-.7-6.9.1-8.6 2.1l-2.9 3.4c1.7-2 4.7-2.9 8.6-2.1 7.8 1.5 16.2 8.7 18.8 16.1 1.3 3.7.9 6.8-.8 8.7z"/><path fill="#FDCE05" d="M299.8 118.9s0 .1 0 0c-1 1.2-2 2.3-2.9 3.5.9-1.1 2.1-2.4 2.9-3.5z"/><linearGradient id="f" gradientUnits="userSpaceOnUse" x1="7807.79" y1="2451.96" x2="7828.16" y2="2451.96" gradientTransform="scale(-1) rotate(-52.97 1195.1 9300.68)"><stop offset="0" stop-color="#f4b456"/><stop offset="1" stop-color="#c17e1e"/></linearGradient><path fill="url(#f)" d="M288.3 124.5c7.8 1.5 12-3.4 9.4-10.8-2.6-7.4-11-14.7-18.8-16.1-7.8-1.5-12 3.4-9.4 10.8 2.6 7.4 11 14.6 18.8 16.1z"/><path fill="#8E5D16" d="M271.1 106.4c2.6 7.4 11 14.7 18.8 16.1 3.3.6 5.9.1 7.7-1.2-1.5 2.7-4.8 4-9.3 3.1-7.8-1.5-16.2-8.7-18.8-16.1-1.5-4.3-.7-7.7 1.7-9.6-1.1 2-1.2 4.6-.1 7.7z"/><path fill="#8E5D16" d="M300.6 125.4l2.9-3.4c2.1-2.5 2.6-6.4 1-11.1-3.3-9.5-14-18.7-23.9-20.5-5-.9-8.8.2-11 2.7l-2.9 3.4c2.2-2.5 6-3.6 11-2.7 9.9 1.9 20.6 11 23.9 20.5 1.6 4.7 1.1 8.6-1 11.1z"/><path fill="#F4C887" d="M265.6 107.6c-3.3-9.5 2.1-15.7 12-13.8 9.9 1.9 20.6 11 23.9 20.5 3.3 9.5-2.1 15.7-12 13.8-9.8-1.8-20.6-11-23.9-20.5zm13.3-10.1c-7.8-1.5-12 3.4-9.4 10.8 2.6 7.4 11 14.7 18.8 16.1 7.8 1.5 12-3.4 9.4-10.8-2.6-7.4-11-14.7-18.8-16.1"/><path fill="#FDCE05" d="M459.8 59.9c1.4-.6 2.7-.8 3.7-.5-.6-.5-1.3-.9-1.9-1.4-1-.3-2.3-.2-3.7.5-3.8 1.7-7.1 6.4-7.5 10.6-.2 2.1.4 3.6 1.5 4.4.6.5 1.3.9 1.9 1.4-1.1-.8-1.7-2.3-1.5-4.4.4-4.2 3.8-8.9 7.5-10.6z"/><path fill="#FDCE05" d="M463.5 59.4c.3.1.6.2.9.4l-1.9-1.4c-.3-.2-.6-.3-.9-.4.3.2.6.5 1 .7.1.1.2.1.3.2.1.1.2.2.4.3.1 0 .2.1.2.2z"/><path fill="#FDC804" d="M451.9 73.5l1.9 1.4c1.1.8 2.7.8 4.6 0 3.8-1.7 7.1-6.4 7.5-10.6.2-2.1-.4-3.6-1.5-4.4l-1.9-1.4c1.1.8 1.7 2.3 1.5 4.4-.4 4.1-3.8 8.9-7.5 10.6-1.9.9-3.5.8-4.6 0z"/><path fill="#FDCE05" d="M453.8 74.9c-.7-.5-1.3-.9-1.9-1.4.6.4 1.4 1 1.9 1.4z"/><linearGradient id="g" gradientUnits="userSpaceOnUse" x1="8719.84" y1="-4531.48" x2="8730.52" y2="-4531.48" gradientTransform="rotate(-148.16 5246.89 -1053.67)"><stop offset="0" stop-color="#f4b456"/><stop offset="1" stop-color="#c17e1e"/></linearGradient><path fill="url(#g)" d="M450.4 69.1c-.4 4.1 2.3 6.1 6.1 4.4s7.1-6.4 7.5-10.6c.4-4.1-2.3-6.1-6.1-4.4-3.7 1.7-7.1 6.5-7.5 10.6z"/><path fill="#8E5D16" d="M459 59.3c-3.8 1.7-7.1 6.4-7.5 10.6-.2 1.7.2 3.1 1 4-1.5-.6-2.3-2.3-2.1-4.7.4-4.1 3.8-8.9 7.5-10.6 2.2-1 4-.7 5.1.4-1-.5-2.4-.4-4 .3z"/><path fill="#8E5D16" d="M450.5 75.6l1.9 1.4c1.4 1 3.5 1.1 5.8 0 4.8-2.2 9.1-8.2 9.6-13.5.3-2.6-.5-4.6-1.9-5.6l-1.9-1.4c1.4 1 2.2 3 1.9 5.6-.5 5.3-4.8 11.3-9.6 13.5-2.4 1-4.4 1-5.8 0z"/><path fill="#F4C887" d="M458.1 56.5c4.8-2.2 8.3.3 7.8 5.6-.5 5.3-4.8 11.3-9.6 13.5-4.8 2.2-8.3-.3-7.8-5.6.5-5.3 4.8-11.3 9.6-13.5zm5.9 6.4c.4-4.1-2.3-6.1-6.1-4.4-3.8 1.7-7.1 6.4-7.5 10.6-.4 4.1 2.3 6.1 6.1 4.4 3.8-1.7 7.1-6.4 7.5-10.6"/></svg>