<svg xmlns="http://www.w3.org/2000/svg" viewBox="0 0 100 70"><path fill="#FDCE05" d="M24.1 49.7c1.2-.8 2.4-1 3.4-.9-.7-.3-1.3-.7-2-1-1-.2-2.2.1-3.4.9-3.3 2-5.9 6.9-5.8 10.8.1 2 .8 3.3 1.9 3.9.7.3 1.3.7 2 1-1.1-.6-1.9-2-1.9-3.9-.1-3.9 2.5-8.8 5.8-10.8z"/><path fill="#FDCE05" d="M27.5 48.8l.9.3-2-1-.9-.3c.3.2.7.3 1 .5.1 0 .2.1.3.1.1.1.2.1.4.2.1 0 .2.1.2.1 0 .1.1.1.1.1z"/><path fill="#FDC804" d="M18.3 63.4l2 1c1.1.6 2.6.5 4.3-.6 3.3-2 5.9-6.9 5.8-10.8-.1-2-.8-3.3-1.9-3.9l-2-1c1.1.6 1.9 2 1.9 3.9.1 3.9-2.5 8.8-5.8 10.8-1.7 1.1-3.2 1.2-4.3.6z"/><path fill="#FDCE05" d="M20.3 64.4c-.1 0-.1 0 0 0-.7-.4-1.3-.7-2-1.1.6.4 1.4.8 2 1.1z"/><linearGradient id="a" gradientUnits="userSpaceOnUse" x1="6967.62" y1="1365.13" x2="6977.7" y2="1365.13" gradientTransform="scale(-1) rotate(24.58 6735.57 -15398.41)"><stop offset="0" stop-color="#f4b456"/><stop offset="1" stop-color="#c17e1e"/></linearGradient><path fill="url(#a)" d="M16.3 59.4c.1 3.9 2.9 5.4 6.2 3.4 3.3-2 5.9-6.9 5.8-10.8-.1-3.9-2.9-5.4-6.2-3.4-3.3 2.1-5.9 6.9-5.8 10.8z"/><path fill="#8E5D16" d="M23.2 49.2c-3.3 2-5.9 6.9-5.8 10.8.1 1.7.6 2.9 1.4 3.6-1.5-.4-2.4-1.9-2.5-4.2-.1-3.9 2.5-8.8 5.8-10.8 1.9-1.2 3.7-1.2 4.8-.2-1-.3-2.3 0-3.7.8z"/><path fill="#8E5D16" d="M17.2 65.5l2 1c1.4.8 3.4.6 5.5-.7 4.2-2.6 7.5-8.8 7.4-13.8-.1-2.5-1-4.2-2.5-5l-2-1c1.5.8 2.4 2.5 2.5 5 .2 5-3.1 11.1-7.4 13.8-2.2 1.3-4.1 1.4-5.5.7z"/><path fill="#F4C887" d="M22.1 46.7c4.2-2.6 7.8-.7 7.9 4.3.2 5-3.1 11.1-7.4 13.8-4.2 2.6-7.8.7-7.9-4.3-.2-5 3.1-11.2 7.4-13.8zm6.3 5.3c-.1-3.9-2.9-5.4-6.2-3.4-3.3 2-5.9 6.9-5.8 10.8.1 3.9 2.9 5.4 6.2 3.4 3.3-2 5.9-6.9 5.8-10.8"/><path fill="#FDCE05" d="M22.2 25.2c1.6.7 2.6 1.7 3.1 2.8l-.3-2.6c-.5-1.1-1.5-2.1-3.1-2.8-4.2-1.9-10.7-1.3-14.4 1.4-1.9 1.3-2.7 3-2.6 4.5.1.8.1 1.6.2 2.5-.1-1.5.7-3.1 2.6-4.5 3.8-2.6 10.3-3.3 14.5-1.3z"/><path fill="#FDC804" d="M4.9 28.4l.2 2.6c.1 1.5 1.3 2.9 3.4 3.9 4.2 1.9 10.7 1.3 14.4-1.4 1.9-1.4 2.8-3 2.6-4.5l-.3-2.6c.2 1.5-.7 3.1-2.6 4.5-3.8 2.7-10.2 3.3-14.4 1.4-2-1-3.2-2.4-3.3-3.9z"/><path fill="#FDCE05" d="M5.1 31c-.1-.9-.1-1.7-.2-2.6.1.8.2 1.9.2 2.6z"/><linearGradient id="b" gradientUnits="userSpaceOnUse" x1="6934.94" y1="1357.82" x2="6946.86" y2="1357.82" gradientTransform="scale(-1) rotate(80.92 4274.7 -3412.8)"><stop offset="0" stop-color="#f4b456"/><stop offset="1" stop-color="#c17e1e"/></linearGradient><path fill="url(#b)" d="M7.5 23.9c-3.8 2.7-3.4 6.4.8 8.4 4.2 1.9 10.7 1.3 14.4-1.4 3.8-2.7 3.4-6.4-.8-8.4-4.2-1.9-10.6-1.3-14.4 1.4z"/><path fill="#8E5D16" d="M22.1 24c-4.2-1.9-10.7-1.3-14.4 1.4C6 26.5 5.2 27.8 5 29.1c-.5-1.7.3-3.6 2.5-5.2 3.8-2.7 10.2-3.3 14.4-1.4 2.4 1.1 3.6 2.8 3.4 4.6-.4-1.2-1.5-2.3-3.2-3.1z"/><path fill="#8E5D16" d="M2.1 28.7l.3 2.6c.1 1.9 1.6 3.7 4.2 4.9 5.3 2.5 13.6 1.7 18.4-1.8 2.4-1.7 3.5-3.8 3.3-5.7l-.3-2.6c.2 1.9-.9 4-3.3 5.7-4.8 3.4-13 4.2-18.4 1.8-2.6-1.2-4-3-4.2-4.9z"/><path fill="#F4C887" d="M23.8 21.2c5.3 2.5 5.8 7.2 1 10.6-4.8 3.4-13 4.2-18.4 1.8C1 31.2.6 26.4 5.4 23c4.8-3.5 13-4.2 18.4-1.8zm-1.1 9.7c3.8-2.7 3.4-6.4-.8-8.4-4.2-1.9-10.7-1.3-14.4 1.4-3.8 2.7-3.4 6.4.8 8.4 4.1 1.9 10.6 1.3 14.4-1.4"/><path fill="#8E5D16" d="M38.6 36.1l-2.2 6s-.6 3.1 2.2 4c0 0 3.1 1.5 4.3-.9 1.2-2.3-4.3-9.1-4.3-9.1zM47.3 50.6l-1.9 6.2s-.6 1.9 3.4 4.1c0 0 3.9 1.9 5.4.8l5.9-7.1-12.8-4zM61.7 58.3s1.1 3.5 4 3.4c0 0 3.5-.1 3.6-2.8.2-2.6-7.6-.6-7.6-.6zM50.5 4.9s-2.3-1.1-3.5-.5c-1.2.6-1.1 1.9.4 2.3s3.1-1.8 3.1-1.8z"/><linearGradient id="c" gradientUnits="userSpaceOnUse" x1="-1235.3" y1="2013.96" x2="-1177.27" y2="2013.96" gradientTransform="rotate(50.16 1547.37 2379.15)"><stop offset="0" stop-color="#f4b456"/><stop offset="1" stop-color="#c17e1e"/></linearGradient><path fill="url(#c)" d="M78.2 56.1c-12 7-28.3 1.4-36.3-12.5S37 12.8 49 5.8s28.3-1.4 36.3 12.5 4.8 30.8-7.1 37.8z"/><path fill="#F4C887" d="M84.1 26s-1.4-5.2 1.7-6.6c0 0 7.8-2.6 12-.2 0 0 1.9 1.2 1.5 2.9 0 0 .8 2.7-9.7 10.1 0 0-.1-3.3-1.2-4 0 .1-1.3-1.4-4.3-2.2z"/><path fill="#8E5D16" d="M67.9 58.8s-3.4-2.2-2.5-5.2 7.1-5.7 10.7-6.3c3.6-.6 5.3-.2 7 .7 0 0 .4-.1 1.6 2.5 1.1 2.6-16.8 8.3-16.8 8.3z"/><path fill="#F4C887" d="M55.3 33.6s-2.4-8.1 7.3-13.9c0 0 2.7-1.7 6.5.8s2.5 5.6 2.5 5.6-9.9 3.5-16.3 7.5zM85.5 51.8c1.1 2.7-1.5 6.3-6.8 8.7-5.5 2.5-9.8 1.8-11-1.2 0-.1-.1-.3-.1-.4 0-.1-.1-.3-.1-.4-.3-2.7 2.6-6 7-7.9 5-2 9.9-1.5 11 1.2z"/><path fill="#8E5D16" d="M67.3 6.3s.6-.8 2.8.7c0 0 4.5 3.5 7.6 11.8 0 0 .4 2.5-2.4.2 0 0-2.8-7.3-7.1-11.3 0 .1-1.7-1.2-.9-1.4z"/><ellipse transform="rotate(-54.17 73.9 55.07)" fill="#8E5D16" cx="73.9" cy="55.1" rx="2.3" ry="1.3"/><ellipse transform="rotate(-54.17 80.28 54.85)" fill="#8E5D16" cx="80.3" cy="54.8" rx="2.3" ry="1.3"/><ellipse transform="rotate(-56.75 72.18 40.96)" fill="#FFF" cx="72.2" cy="41" rx="2.3" ry="2"/><ellipse transform="rotate(-75.14 86.17 40.01)" fill="#FFF" cx="86.2" cy="40" rx="2.3" ry="1.4"/><path fill="#8E5D16" d="M58.6 31.9s4.6-8.2 8.9-8.9c0 0 2.6-.4 2.5 3.7l-11.4 5.2zM85.5 26.8s4.9-3.6 11.2-4.6c0 0 1 0 .3 1.3 0 0 .2 1.1-7.5 7.5.1.1-.3-3.3-4-4.2zM88.5 36.7l-.3-.6-.3-.6c-.1-.1-.1-.2-.2-.3-.1-.1-.1-.2-.2-.3l-.2-.2c-.1-.1-.2-.1-.2-.2-.1.1-.1 0-.1-.1s0-.2-.1-.2c0-.1 0-.2-.1-.3 0-.1 0-.2-.1-.2 0-.1-.1-.3-.1-.3l.1-.1s.1-.1.2-.1.2-.1.3-.1h.4c.1 0 .3.1.4.2l.3.3c.1.1.1.3.2.4 0 .1.1.3.1.4 0 .1.1.3.1.4v1.1c-.1.4-.1.7-.1.7l-.1.1zM66.9 37.9l.5-1.3c.2-.4.4-.8.7-1.3.2-.2.3-.5.5-.7.2-.2.4-.4.6-.7.2-.2.4-.4.7-.6.2-.2.5-.4.8-.5.1-.1.3-.1.4-.1.2 0 .3-.1.4-.1.3 0 .6 0 .8.1.1 0 .2.1.3.1.1 0 .2.1.3.1.2.1.3.2.4.3l.2.2c0 .1.1.1.1.1l-.1.1h-.8c-.1 0-.2 0-.2.1-.1 0-.2 0-.2.1-.2 0-.3.1-.5.2-.1 0-.2.1-.3.1-.1 0-.2.1-.3.1-.2.1-.4.1-.6.2l-.6.3-1.2.9c-.4.3-.7.7-1 1-.5.6-.9 1-.9 1v.3z"/></svg>