<?xml version="1.0" encoding="UTF-8"?> <svg xmlns="http://www.w3.org/2000/svg" width="143.019" height="30" viewBox="0 0 143.019 30"><g transform="translate(-10 -9.5)"><text transform="translate(122.019 31)" fill="#f89827" font-size="20" font-family="Roboto-Regular, Roboto"><tspan x="0" y="0">Pro</tspan></text><g transform="translate(10 9.5)"><path d="M110.895,335.614h2.386s-6.345,21.208-51.164,0C57.132,333.256,96.685,351.025,110.895,335.614Z" transform="translate(-59.236 -315.04)" fill="#fff"></path><path d="M452.527,199.606s3.818-19.794,41.285-.141C497,201.136,467.373,186.457,452.527,199.606Z" transform="translate(-395.072 -190.766)" fill="#fff"></path><path d="M52.978,262.08l-.865,1.4a3.626,3.626,0,0,0-2.265-.565,3.2,3.2,0,0,0-2.427.995,3.5,3.5,0,0,0-.946,2.517,3.3,3.3,0,0,0,.878,2.417,3.136,3.136,0,0,0,2.343.893,3.523,3.523,0,0,0,2.622-.956l.979,1.362a5.68,5.68,0,0,1-3.774,1.1,5.379,5.379,0,0,1-3.863-1.31,4.7,4.7,0,0,1-1.377-3.574,4.614,4.614,0,0,1,1.526-3.525,5.514,5.514,0,0,1,3.907-1.418A6.783,6.783,0,0,1,52.978,262.08Z" transform="translate(-44.283 -251.466)" fill="#fff"></path><path d="M134.089,266.243a4.686,4.686,0,0,1,1.392-3.432,5.008,5.008,0,0,1,3.722-1.4,5.526,5.526,0,0,1,3.921,1.271,4.646,4.646,0,0,1,1.356,3.565,4.792,4.792,0,0,1-1.417,3.643,5.606,5.606,0,0,1-4.023,1.348,4.848,4.848,0,0,1-3.674-1.335A5.067,5.067,0,0,1,134.089,266.243Zm2.191,0a4.125,4.125,0,0,0,.706,2.576,2.44,2.44,0,0,0,2.055.912,3.142,3.142,0,0,0,2.416-.893,3.672,3.672,0,0,0,.832-2.6q0-3.334-3.086-3.334a2.668,2.668,0,0,0-2.168.9A3.669,3.669,0,0,0,136.28,266.244Z" transform="translate(-121.45 -251.466)" fill="#fff"></path><path d="M243.408,272.049h-2.05l-1.228-5.125-2.395,5.249h-.76l-2.386-5.249-1.272,5.125h-2.032l2.386-9.508h1.113l2.571,6.4,2.519-6.4h1.113Z" transform="translate(-204.966 -252.44)" fill="#fff"></path><path d="M346.337,268.125v3.492h-2.1V262.11q2.109-.071,2.465-.072a9.19,9.19,0,0,1,4.115.692,2.291,2.291,0,0,1,1.3,2.163q0,3.277-4.822,3.277C347.057,268.17,346.738,268.156,346.337,268.125Zm0-4.552v3.05c.357.031.639.045.845.045a4.38,4.38,0,0,0,2.112-.387,1.344,1.344,0,0,0,.666-1.258q0-1.483-2.981-1.483A6.092,6.092,0,0,0,346.337,263.573Z" transform="translate(-302.02 -252.007)" fill="#fff"></path><path d="M421.916,271.291l-.864-1.926h-4.069l-.829,1.926H413.8l4.754-9.632h.919l4.772,9.632Zm-2.9-6.715-1.433,3.5h2.854Z" transform="translate(-361.798 -251.682)" fill="#fff"></path><path d="M522.464,272.173l-5.744-6.009v5.885h-2.032v-9.508H515.7l5.6,5.726v-5.726h2.033v9.632Z" transform="translate(-448.484 -252.44)" fill="#fff"></path><path d="M613.166,264.043v2.227H617V267.7h-3.835v2.845h5.391v1.5h-7.493v-9.508h7.493v1.5Z" transform="translate(-531.296 -252.44)" fill="#fff"></path><path d="M691.78,266.243a4.686,4.686,0,0,1,1.392-3.432,5.008,5.008,0,0,1,3.722-1.4,5.526,5.526,0,0,1,3.921,1.271,4.646,4.646,0,0,1,1.356,3.565,4.79,4.79,0,0,1-1.417,3.643,5.608,5.608,0,0,1-4.023,1.348,4.848,4.848,0,0,1-3.674-1.335A5.066,5.066,0,0,1,691.78,266.243Zm2.191,0a4.124,4.124,0,0,0,.706,2.576,2.44,2.44,0,0,0,2.054.912,3.141,3.141,0,0,0,2.416-.893,3.672,3.672,0,0,0,.832-2.6q0-3.334-3.086-3.334a2.668,2.668,0,0,0-2.168.9A3.669,3.669,0,0,0,693.971,266.244Z" transform="translate(-600.653 -251.466)" fill="#fff"></path></g></g></svg> 